<svg width="1093" height="236" viewBox="0 0 1093 236" fill="none" xmlns="http://www.w3.org/2000/svg">
<path d="M1056.49 171.202C1046.34 190.225 1031.47 201.905 1019.97 201.905C1011.18 201.905 1004.42 194.563 1004.42 177.209C1004.42 150.177 1017.94 108.128 1024.37 86.1017H923.616L913.812 119.808C898.936 171.536 875.607 201.905 838.755 201.905C833.346 201.905 826.922 200.904 823.541 198.902C851.265 179.212 879.326 147.841 879.326 116.805C879.326 91.1076 860.393 81.0958 843.15 81.0958C789.056 81.0958 750.513 151.179 765.051 195.231C756.261 198.234 748.147 201.905 738.342 201.905C728.537 201.905 723.128 195.231 725.157 186.22C727.523 175.541 741.047 139.832 741.047 120.476C741.047 96.781 722.452 80.7621 694.39 80.7621C687.966 80.7621 680.867 82.4307 673.767 85.1005L691.685 22.6935H656.524L614.601 168.199C608.177 190.892 588.906 201.905 573.015 201.905C553.068 201.905 545.63 186.22 550.363 170.535L565.239 119.474H603.444L613.248 86.1017H574.706L592.963 22.6935H557.801L512.159 180.88C507.764 195.898 497.283 201.905 488.154 201.905C473.616 201.905 469.221 190.225 472.264 179.545L499.311 86.1017C489.845 83.0982 476.321 80.7621 465.84 80.7621C405.322 80.7621 348.185 133.825 348.185 186.22C348.185 186.267 348.185 186.317 348.185 186.363C331.997 196.609 313.216 201.905 296.795 201.905C285.3 201.905 278.876 200.904 273.804 198.234C302.204 179.879 331.618 149.176 331.618 116.805C331.618 91.1076 312.685 81.0958 295.442 81.0958C241.686 81.0958 204.158 149.51 216.667 193.228C204.834 199.235 194.015 202.239 182.182 202.239C163.587 202.239 146.006 194.563 132.482 179.212L149.725 119.474C191.648 116.137 247.095 82.097 247.095 40.381C247.095 14.3503 229.515 0 207.2 0C167.644 0 137.892 37.7112 124.03 86.1017C98.3351 83.0982 84.4733 55.7325 104.759 22.6935H68.2449C45.5928 72.4189 68.583 107.127 114.563 119.474L103.406 157.853C86.5019 147.508 73.3163 143.503 57.7641 143.503C-16.9541 143.503 -19.9969 235.278 53.3689 235.278C74.6687 235.278 100.364 224.265 113.887 209.581C133.158 226.267 152.092 235.278 176.434 235.278C195.029 235.278 213.962 229.938 233.572 218.592C246.757 229.271 264 235.278 288.681 235.278C310.599 235.278 332.521 230.786 355.095 215.127C361.783 226.745 373.984 235.278 394.503 235.278C411.746 235.278 430.679 227.936 444.879 212.251C455.36 227.268 471.25 235.278 487.478 235.278C501.002 235.278 514.864 229.938 526.697 219.259C536.163 229.271 553.406 235.278 572.339 235.278C601.753 235.278 634.548 219.926 646.043 180.213L659.229 134.158C663.286 120.476 674.105 114.135 686.614 114.135C697.433 114.135 703.181 119.474 703.181 128.819C703.181 146.173 687.628 187.555 687.628 202.239C687.628 226.935 704.533 235.278 727.185 235.278C741.385 235.278 752.542 234.944 784.323 220.928C797.17 230.272 817.117 235.278 839.77 235.278C890.145 235.278 925.307 201.238 949.311 119.474H979.739C973.992 138.497 969.935 159.522 969.935 178.211C969.935 209.581 981.43 235.278 1016.93 235.278C1044.65 235.278 1083.2 207.579 1093 171.202H1056.49ZM202.129 33.3728C208.553 33.3728 212.948 37.0438 212.948 42.3834C212.948 60.071 181.167 82.7644 159.192 86.1017C169.334 51.394 189.958 33.3728 202.129 33.3728ZM55.0594 201.905C26.3216 201.905 28.6883 173.872 57.426 173.872C69.9354 173.872 79.7401 177.877 91.5733 187.889C83.4591 196.899 67.9069 201.905 55.0594 201.905ZM285.3 114.135C292.4 114.135 296.795 118.473 296.795 125.482C296.795 144.17 272.114 167.197 251.152 178.878C243.714 157.519 265.014 114.135 285.3 114.135ZM400.589 201.905C390.108 201.905 385.037 194.563 385.037 183.884C385.037 158.187 413.098 114.802 456.036 114.135C440.484 167.865 430.003 201.905 400.589 201.905ZM833.008 114.135C840.108 114.135 844.503 118.473 844.503 125.482C844.503 144.17 818.808 168.199 799.199 180.213C790.746 160.189 812.384 114.135 833.008 114.135Z" fill="#12100F"/>
</svg>
