<svg width="1093" height="236" viewBox="0 0 1093 236" fill="none" xmlns="http://www.w3.org/2000/svg">
<path d="M1056.49 171.924C1046.34 190.947 1031.47 202.627 1019.97 202.627C1011.18 202.627 1004.42 195.285 1004.42 177.931C1004.42 150.9 1017.94 108.85 1024.37 86.8239H923.616L913.812 120.53C898.936 172.258 875.607 202.627 838.755 202.627C833.346 202.627 826.922 201.626 823.541 199.624C851.265 179.934 879.326 148.563 879.326 117.527C879.326 91.8298 860.393 81.818 843.15 81.818C789.056 81.818 750.513 151.901 765.051 195.953C756.261 198.956 748.147 202.627 738.342 202.627C728.537 202.627 723.128 195.953 725.157 186.942C727.523 176.263 741.047 140.554 741.047 121.198C741.047 97.5032 722.452 81.4842 694.39 81.4842C687.966 81.4842 680.867 83.1529 673.767 85.8227L691.685 23.4156H656.524L614.601 168.921C608.177 191.614 588.906 202.627 573.015 202.627C553.068 202.627 545.63 186.942 550.363 171.257L565.239 120.197H603.444L613.248 86.8239H574.706L592.963 23.4156H557.801L512.159 181.602C507.764 196.62 497.283 202.627 488.154 202.627C473.616 202.627 469.221 190.947 472.264 180.268L499.311 86.8239C489.845 83.8203 476.321 81.4842 465.84 81.4842C405.322 81.4842 348.185 134.547 348.185 186.942C348.185 186.989 348.185 187.039 348.185 187.086C331.997 197.331 313.216 202.627 296.795 202.627C285.3 202.627 278.876 201.626 273.804 198.956C302.204 180.601 331.618 149.898 331.618 117.527C331.618 91.8298 312.685 81.818 295.442 81.818C241.686 81.818 204.158 150.232 216.667 193.95C204.834 199.958 194.015 202.961 182.182 202.961C163.587 202.961 146.006 195.285 132.482 179.934L149.725 120.197C191.648 116.859 247.095 82.8191 247.095 41.1032C247.095 15.0725 229.515 0.722168 207.2 0.722168C167.644 0.722168 137.892 38.4334 124.03 86.8239C98.3351 83.8203 84.4733 56.4547 104.759 23.4156H68.2449C45.5928 73.141 68.583 107.849 114.563 120.197L103.406 158.575C86.5019 148.23 73.3163 144.225 57.7641 144.225C-16.9541 144.225 -19.9969 236 53.3689 236C74.6687 236 100.364 224.987 113.887 210.303C133.158 226.989 152.092 236 176.434 236C195.029 236 213.962 230.66 233.572 219.314C246.757 229.993 264 236 288.681 236C310.599 236 332.521 231.508 355.095 215.85C361.783 227.467 373.984 236 394.503 236C411.746 236 430.679 228.658 444.879 212.973C455.36 227.991 471.25 236 487.478 236C501.002 236 514.864 230.66 526.697 219.981C536.163 229.993 553.406 236 572.339 236C601.753 236 634.548 220.649 646.043 180.935L659.229 134.881C663.286 121.198 674.105 114.857 686.614 114.857C697.433 114.857 703.181 120.197 703.181 129.541C703.181 146.895 687.628 188.277 687.628 202.961C687.628 227.657 704.533 236 727.185 236C741.385 236 752.542 235.666 784.323 221.65C797.17 230.994 817.117 236 839.77 236C890.145 236 925.307 201.96 949.311 120.197H979.739C973.992 139.219 969.935 160.244 969.935 178.933C969.935 210.303 981.43 236 1016.93 236C1044.65 236 1083.2 208.301 1093 171.924H1056.49ZM202.129 34.0949C208.553 34.0949 212.948 37.7659 212.948 43.1056C212.948 60.7931 181.167 83.4866 159.192 86.8239C169.334 52.1162 189.958 34.0949 202.129 34.0949ZM55.0594 202.627C26.3216 202.627 28.6883 174.594 57.426 174.594C69.9354 174.594 79.7401 178.599 91.5733 188.611C83.4591 197.621 67.9069 202.627 55.0594 202.627ZM285.3 114.857C292.4 114.857 296.795 119.195 296.795 126.204C296.795 144.892 272.114 167.92 251.152 179.6C243.714 158.242 265.014 114.857 285.3 114.857ZM400.589 202.627C390.108 202.627 385.037 195.285 385.037 184.606C385.037 158.909 413.098 115.524 456.036 114.857C440.484 168.587 430.003 202.627 400.589 202.627ZM833.008 114.857C840.108 114.857 844.503 119.195 844.503 126.204C844.503 144.892 818.808 168.921 799.199 180.935C790.746 160.911 812.384 114.857 833.008 114.857Z" fill="#F5F1ED"/>
</svg>
