<svg width="513" height="513" viewBox="0 0 513 513" fill="none" xmlns="http://www.w3.org/2000/svg">
<g clip-path="url(#clip0_1_1830)">
<mask id="mask0_1_1830" style="mask-type:luminance" maskUnits="userSpaceOnUse" x="7" y="0" width="379" height="433">
<path d="M386 0H7V432.694H386V0Z" fill="white"/>
</mask>
<g mask="url(#mask0_1_1830)">
<path d="M196.5 113.832V113.793V113.734V113.656V113.559V113.442V113.305V113.149V112.954L196.517 112.739V112.505L196.551 112.251V111.978L196.602 111.686L196.636 111.373L196.67 111.042L196.704 110.691L196.738 110.32L196.789 109.93L196.84 109.52L196.891 109.091L196.941 108.642L197.009 108.173L197.077 107.686L197.145 107.178L197.23 106.652L197.315 106.105L197.417 105.539L197.519 104.954L197.621 104.349L197.74 103.725L197.858 103.081L197.994 102.418L198.13 101.735L198.283 101.052L198.436 100.349L198.606 99.6273L198.775 98.8859L198.962 98.1249L199.149 97.364L199.353 96.5835L199.556 95.7835L199.777 94.964L199.998 94.1445L200.236 93.3055L200.49 92.447L200.745 91.5884L201.017 90.7104L201.288 89.8324L201.577 88.9349L201.883 88.0373L202.188 87.1203L202.511 86.2032L202.851 85.2666L203.19 84.3301L203.547 83.374L203.92 82.4179L204.294 81.4423L204.685 80.4667L205.092 79.4911L205.517 78.5155L205.941 77.5204L206.383 76.5253L206.841 75.5302L207.299 74.5351L207.775 73.5205L208.267 72.5059L208.777 71.4913L209.286 70.4767L209.813 69.4621L210.356 68.4474L210.916 67.4328L211.477 66.4182L212.054 65.4036L212.648 64.389L213.26 63.3744L213.871 62.3598L214.499 61.3451L215.144 60.3305L215.807 59.3159L216.469 58.3013L217.148 57.3062L217.844 56.3111L218.557 55.316L219.271 54.3209L220.001 53.3453L220.748 52.3697L221.512 51.3941L222.276 50.438L223.057 49.482L223.855 48.5454L224.67 47.6088L225.485 46.6723L226.317 45.7552L227.166 44.8381L228.015 43.9406L228.881 43.0431L229.764 42.165L230.664 41.3065L231.564 40.448L232.481 39.609L233.415 38.7895L234.349 37.97L235.3 37.17L236.268 36.3895L237.236 35.6091L238.221 34.8481L239.205 34.1067L240.207 33.3847L241.226 32.6628L242.245 31.9604L243.281 31.2774L244.316 30.614L245.369 29.9701L246.439 29.3458L247.509 28.7409L248.596 28.1556L249.682 27.5897L250.786 27.0239L251.89 26.4775L253.01 25.9507L254.131 25.4434L255.269 24.9556L256.406 24.4873L257.561 24.0386L258.716 23.6288L259.87 23.2386L261.042 22.8678L262.214 22.5166L263.402 22.1849L264.591 21.8727L265.78 21.5801L266.985 21.3069L268.191 21.0532L269.396 20.8191L270.602 20.624L271.825 20.4484L273.047 20.2923L274.27 20.1557L275.492 20.0386L276.732 19.9411L277.971 19.8825L279.211 19.8435H280.451H281.69H282.93L284.169 19.9216L285.426 19.9996L286.682 20.0972L287.939 20.2142L289.195 20.3508L290.452 20.5264L291.708 20.7215L292.965 20.9362L294.222 21.1703L295.478 21.424L296.718 21.7167L297.957 22.0288L299.197 22.3605L300.436 22.7118L301.676 23.0825L302.915 23.4922L304.155 23.9215L305.378 24.3703L306.6 24.8385L307.823 25.3263L309.045 25.8532L310.268 26.3995L311.474 26.9653L312.679 27.5507L313.885 28.1556L315.073 28.7799L316.262 29.4238L317.451 30.1067L318.622 30.8092L319.794 31.5311L320.949 32.2725L322.103 33.0335L323.241 33.814L324.379 34.614L325.499 35.4335L326.62 36.2725L327.724 37.131L328.827 38.009L329.914 38.9066L331.001 39.8236L332.071 40.7602L333.123 41.7163L334.176 42.6918L335.212 43.687L336.231 44.7016L337.25 45.7357L338.251 46.7893L339.236 47.8625L340.221 48.9551L341.189 50.0673L342.14 51.199L343.074 52.3502L344.008 53.5014L344.925 54.6721L345.825 55.8623L346.708 57.0721L347.574 58.3013L348.423 59.5501L349.272 60.7988L350.104 62.0671L350.919 63.3549L351.717 64.6426L352.498 65.9499L353.262 67.2767L354.009 68.623L354.739 69.9694L355.452 71.3352L356.149 72.701L356.828 74.0864L357.49 75.4912L358.135 76.8961L358.764 78.3204L359.375 79.7448L359.969 81.1887L360.547 82.6325L361.107 84.0959L361.65 85.5593L362.177 87.0422L362.686 88.5251L363.161 90.0275L363.62 91.5299L364.061 93.0518L364.486 94.5738L364.893 96.0957L365.284 97.6371L365.658 99.1786L365.997 100.739L366.32 102.3L366.625 103.861L366.914 105.422L367.186 107.003L367.441 108.583L367.661 110.164L367.865 111.764L368.052 113.364L368.222 114.964L368.374 116.564L368.51 118.164L368.612 119.783L368.697 121.403L368.765 123.022L368.816 124.641L368.85 126.261V127.88V129.5L368.816 131.119L368.765 132.758L368.68 134.397L368.578 136.036L368.459 137.675L368.324 139.314L368.171 140.953L368.001 142.592L367.797 144.231L367.576 145.87L367.339 147.509L367.084 149.148L366.812 150.787L366.507 152.426L366.184 154.065L365.844 155.704L365.488 157.343L365.114 158.982L364.724 160.602L364.316 162.221L363.875 163.841L363.416 165.46L362.941 167.08L362.448 168.699L361.939 170.319L361.413 171.938L360.869 173.558L360.309 175.158L359.731 176.758L359.137 178.357L358.526 179.957L357.881 181.557L357.218 183.157L356.539 184.757L355.843 186.338L355.13 187.918L354.4 189.499L353.653 191.079L352.905 192.66L352.141 194.24L351.36 195.801L350.562 197.362L349.747 198.923L348.915 200.484L348.066 202.045L347.2 203.586L346.317 205.128L345.417 206.669L344.517 208.211L343.6 209.752L342.666 211.274L341.715 212.796L340.748 214.318L339.78 215.84L338.795 217.362L337.793 218.864L336.791 220.366L335.772 221.869L334.737 223.371L333.701 224.874L332.648 226.357L331.578 227.839L330.508 229.322L329.422 230.805L328.318 232.288L327.214 233.752L326.094 235.215L324.973 236.678L323.835 238.142L322.697 239.586L321.543 241.029L320.388 242.473L319.217 243.917L318.045 245.361L316.873 246.805L315.685 248.229L314.496 249.654L313.307 251.078L312.102 252.502L310.896 253.927L309.691 255.332L308.468 256.736L307.245 258.141L306.023 259.546L304.8 260.951L303.561 262.356L302.321 263.741L301.082 265.127L299.842 266.512L298.602 267.897L297.363 269.283L296.123 270.668L294.867 272.034L293.61 273.4L292.354 274.765L291.097 276.131L289.841 277.497L288.584 278.863L287.328 280.209L286.071 281.555L284.814 282.902L283.575 284.248L282.335 285.594L281.096 286.941L279.856 288.268L278.617 289.594L277.377 290.921L276.138 292.248L274.915 293.575L273.692 294.902L272.47 296.228L271.247 297.536L270.025 298.843L268.819 300.15L267.613 301.458L266.408 302.765L265.219 304.072L264.031 305.379L262.842 306.667L261.67 307.955L260.499 309.243L259.327 310.53L258.172 311.818L257.018 313.106L255.88 314.374L254.742 315.643L253.622 316.911L252.501 318.179L251.397 319.447L250.294 320.716L249.207 321.964L248.12 323.213L247.05 324.462L245.981 325.711L244.928 326.959L243.875 328.189L242.839 329.418L241.803 330.647L240.785 331.876L239.783 333.106L238.781 334.315L237.796 335.525L236.811 336.735L235.843 337.945L234.892 339.135L233.942 340.325L233.008 341.515L232.091 342.705L231.174 343.896L230.274 345.066L229.391 346.237L228.508 347.408L227.642 348.559L226.793 349.71L225.961 350.861L225.129 352.013L224.314 353.144L223.516 354.276L222.735 355.408L221.953 356.52L221.189 357.632L220.442 358.744L219.695 359.837L218.965 360.93L218.252 362.022L217.556 363.095L216.859 364.168L216.18 365.242L215.518 366.295L214.873 367.349L214.244 368.383L213.616 369.417L213.005 370.432L212.411 371.446L211.833 372.461L211.256 373.456L210.696 374.451L210.152 375.427L209.626 376.402L209.099 377.358L208.59 378.315L208.098 379.251L207.622 380.188L207.147 381.105L206.688 382.022L206.247 382.919L205.805 383.817L205.381 384.695L204.973 385.573L204.583 386.431L204.192 387.29L203.819 388.129L203.462 388.948L203.105 389.768L202.766 390.568L202.443 391.368L202.12 392.148L201.815 392.909L201.526 393.67L201.238 394.412L200.966 395.153L200.694 395.875L200.439 396.578L200.202 397.28L199.964 397.963L199.743 398.626L199.522 399.29L199.319 399.934L199.132 400.558L198.945 401.163L198.775 401.768L198.606 402.353L198.453 402.919L198.3 403.485L198.164 404.031L198.028 404.558L197.909 405.065L197.791 405.573L197.672 406.06L197.57 406.529L197.468 406.977L197.383 407.407L197.298 407.836L197.213 408.246L197.145 408.636L197.077 409.007L197.009 409.358L196.958 409.709L196.908 410.041L196.857 410.353L196.823 410.646L196.789 410.919L196.755 411.192L196.721 411.446V411.68L196.67 411.894V412.089L196.636 412.265V412.441L196.619 412.597V412.733V412.85V412.948V413.026V413.085V413.143V413.182V413.124V413.065V413.007V412.928V412.831V412.714V412.577V412.421L196.602 412.246V412.07L196.568 411.875V411.66L196.517 411.426L196.483 411.172L196.449 410.899L196.415 410.626L196.381 410.333L196.33 410.021L196.279 409.69L196.228 409.338L196.16 408.987L196.092 408.616L196.025 408.226L195.94 407.816L195.855 407.387L195.77 406.958L195.668 406.509L195.566 406.041L195.447 405.553L195.328 405.046L195.21 404.538L195.074 404.012L194.938 403.465L194.785 402.899L194.632 402.334L194.462 401.748L194.293 401.143L194.106 400.538L193.919 399.914L193.715 399.27L193.495 398.607L193.274 397.943L193.036 397.261L192.798 396.558L192.544 395.856L192.272 395.134L192 394.392L191.712 393.651L191.423 392.89L191.117 392.129L190.795 391.348L190.472 390.548L190.132 389.748L189.776 388.929L189.419 388.109L189.046 387.27L188.655 386.412L188.265 385.553L187.857 384.675L187.433 383.797L186.991 382.9L186.55 382.002L186.091 381.085L185.616 380.168L185.14 379.232L184.648 378.295L184.138 377.339L183.612 376.383L183.086 375.407L182.542 374.432L181.982 373.437L181.405 372.441L180.827 371.427L180.233 370.412L179.622 369.398L178.993 368.363L178.365 367.329L177.72 366.276L177.058 365.222L176.378 364.149L175.682 363.076L174.986 362.003L174.273 360.91L173.543 359.817L172.796 358.725L172.048 357.612L171.284 356.5L170.503 355.388L169.722 354.256L168.924 353.125L168.109 351.993L167.277 350.842L166.445 349.691L165.596 348.54L164.73 347.388L163.847 346.218L162.964 345.047L162.064 343.876L161.147 342.686L160.23 341.496L159.296 340.306L158.345 339.115L157.394 337.925L156.427 336.715L155.442 335.506L154.457 334.296L153.455 333.086L152.453 331.857L151.434 330.628L150.399 329.398L149.363 328.169L148.31 326.94L147.257 325.691L146.187 324.442L145.118 323.194L144.031 321.945L142.944 320.696L141.84 319.428L140.737 318.16L139.616 316.891L138.495 315.623L137.358 314.355L136.22 313.087L135.065 311.799L133.911 310.511L132.739 309.223L131.567 307.935L130.396 306.648L129.207 305.36L128.019 304.053L126.83 302.745L125.624 301.438L124.419 300.131L123.213 298.823L121.991 297.516L120.768 296.209L119.545 294.882L118.323 293.555L117.1 292.228L115.861 290.902L114.621 289.575L113.382 288.248L112.142 286.921L110.902 285.575L109.663 284.229L108.423 282.882L107.167 281.536L105.91 280.19L104.654 278.843L103.397 277.478L102.141 276.112L100.884 274.746L99.6275 273.38L98.3709 272.014L97.1144 270.648L95.8748 269.263L94.6353 267.878L93.3957 266.492L92.1562 265.107L90.9166 263.722L89.677 262.336L88.4375 260.931L87.2149 259.527L85.9923 258.122L84.7697 256.717L83.5471 255.312L82.3415 253.907L81.1359 252.483L79.9303 251.058L78.7417 249.634L77.5531 248.21L76.3645 246.785L75.1928 245.342L74.0212 243.898L72.8496 242.454L71.6949 241.01L70.5402 239.566L69.4026 238.122L68.2649 236.659L67.1442 235.195L66.0235 233.732L64.9198 232.269L63.816 230.786L62.7293 229.303L61.6595 227.82L60.5898 226.337L59.537 224.854L58.5012 223.352L57.4654 221.849L56.4466 220.347L55.4448 218.844L54.4429 217.342L53.4581 215.82L52.4902 214.298L51.5223 212.776L50.5714 211.254L49.6375 209.732L48.7206 208.191L47.8206 206.65L46.9207 205.108L46.0377 203.567L45.1717 202.025L44.3227 200.464L43.4906 198.903L42.6756 197.342L41.8775 195.782L41.0964 194.221L40.3323 192.64L39.5852 191.06L38.838 189.479L38.1079 187.899L37.3947 186.318L36.6985 184.738L36.0193 183.138L35.3571 181.538L34.7118 179.938L34.1005 178.338L33.5062 176.738L32.9289 175.138L32.3686 173.538L31.8252 171.919L31.2988 170.299L30.7894 168.68L30.297 167.06L29.8215 165.441L29.363 163.821L28.9216 162.202L28.514 160.582L28.1235 158.963L27.7499 157.324L27.3933 155.685L27.0537 154.046L26.7311 152.407L26.4255 150.768L26.1538 149.129L25.8991 147.49L25.6613 145.851L25.4406 144.212L25.2368 142.573L25.067 140.934L24.9142 139.295L24.7784 137.656L24.6595 136.017L24.5576 134.378L24.4727 132.739L24.4218 131.1L24.3878 129.48V127.861V126.241L24.4218 124.622L24.4727 123.002L24.5406 121.383L24.6255 119.764L24.7274 118.144L24.8633 116.544L25.0161 114.944L25.1859 113.344L25.3727 111.744L25.5764 110.144L25.7972 108.564L26.0519 106.983L26.3236 105.403L26.6122 103.842L26.9179 102.281L27.2405 100.72L27.5801 99.159L27.9537 97.6176L28.3442 96.0762L28.7518 94.5542L29.1763 93.0323L29.6177 91.5104L30.0762 90.008L30.5517 88.5056L31.0611 87.0227L31.5875 85.5398L32.1308 84.0764L32.6912 82.613L33.2685 81.1691L33.8628 79.7253L34.4741 78.3009L35.1024 76.8765L35.7476 75.4717L36.4099 74.0668L37.0891 72.6815L37.7853 71.3157L38.4984 69.9498L39.2286 68.6035L39.9757 67.2572L40.7398 65.9304L41.5209 64.6231L42.319 63.3353L43.1341 62.0476L43.9661 60.7793L44.8151 59.5305L45.6641 58.2818L46.5301 57.0525L47.4131 55.8428L48.313 54.6526L49.23 53.4819L50.1639 52.3307L51.0978 51.1795L52.0487 50.0478L53.0166 48.9356L54.0014 47.843L54.9863 46.7698L55.9881 45.7162L57.007 44.6821L58.0258 43.6674L59.0616 42.6723L60.1143 41.6967L61.1671 40.7407L62.2369 39.8041L63.3236 38.887L64.4104 37.9895L65.5141 37.1115L66.6178 36.253L67.7385 35.4139L68.8592 34.5944L69.9969 33.7945L71.1345 33.014L72.2892 32.253L73.4439 31.5116L74.6155 30.7896L75.7871 30.0872L76.9758 29.4043L78.1644 28.7604L79.353 28.136L80.5586 27.5312L81.7642 26.9458L82.9698 26.38L84.1924 25.8336L85.415 25.3068L86.6376 24.819L87.8601 24.3507L89.0827 23.902L90.3223 23.4727L91.5618 23.063L92.8014 22.6922L94.0409 22.341L95.2805 22.0093L96.5201 21.6971L97.7596 21.4045L99.0162 21.1508L100.273 20.9167L101.529 20.702L102.786 20.5069L104.042 20.3313L105.299 20.1947L106.555 20.0777L107.812 19.9801L109.069 19.9021L110.308 19.8435H111.548L112.787 19.824H114.027L115.266 19.8825L116.506 19.9411L117.745 20.0386L118.968 20.1557L120.191 20.2923L121.413 20.4484L122.636 20.624L123.841 20.8191L125.047 21.0532L126.253 21.3069L127.458 21.5801L128.647 21.8727L129.835 22.1849L131.024 22.5166L132.196 22.8678L133.367 23.2386L134.522 23.6288L135.677 24.0386L136.831 24.4873L137.969 24.9556L139.107 25.4434L140.227 25.9507L141.348 26.4775L142.452 27.0239L143.555 27.5897L144.642 28.1556L145.729 28.7409L146.799 29.3458L147.868 29.9701L148.921 30.614L149.957 31.2774L150.993 31.9604L152.012 32.6628L153.03 33.3847L154.032 34.1067L155.017 34.8481L156.002 35.6091L156.97 36.3895L157.938 37.17L158.889 37.97L159.823 38.7895L160.757 39.609L161.673 40.448L162.573 41.3065L163.473 42.165L164.356 43.0431L165.222 43.9406L166.071 44.8381L166.92 45.7552L167.752 46.6723L168.567 47.6088L169.382 48.5454L170.181 49.482L170.962 50.438L171.726 51.3941L172.49 52.3697L173.237 53.3453L173.967 54.3209L174.68 55.316L175.394 56.3111L176.09 57.3062L176.769 58.3013L177.431 59.3159L178.093 60.3305L178.739 61.3451L179.367 62.3598L179.978 63.3744L180.589 64.389L181.184 65.4036L181.761 66.4182L182.321 67.4328L182.882 68.4474L183.425 69.4621L183.952 70.4767L184.461 71.4913L184.97 72.5059L185.463 73.5205L185.938 74.5351L186.397 75.5302L186.855 76.5253L187.297 77.5204L187.721 78.5155L188.146 79.4911L188.553 80.4667L188.944 81.4423L189.317 82.4179L189.691 83.374L190.048 84.3301L190.387 85.2666L190.727 86.2032L191.049 87.1203L191.355 88.0373L191.661 88.9349L191.949 89.8324L192.221 90.7104L192.493 91.5884L192.747 92.447L193.002 93.3055L193.24 94.1445L193.461 94.964L193.681 95.7835L193.885 96.5835L194.089 97.364L194.276 98.1249L194.462 98.8859L194.632 99.6273L194.802 100.349L194.955 101.052L195.108 101.735L195.243 102.418L195.379 103.081L195.498 103.725L195.617 104.349L195.719 104.954L195.821 105.539L195.923 106.105L196.008 106.652L196.092 107.178L196.16 107.686L196.228 108.173L196.296 108.642L196.347 109.091L196.398 109.52L196.449 109.93L196.5 110.32L196.534 110.691L196.568 111.042L196.602 111.373L196.636 111.686V111.978L196.687 112.251V112.505L196.721 112.739V112.954L196.738 113.149V113.305V113.442V113.559V113.656V113.734V113.793V113.832H196.5Z" fill="#F8F8F8" stroke="#F8F8F8"/>
</g>
</g>
<path d="M145.739 226.048C144.46 215.253 139.276 206.872 130.185 200.906C121.094 194.94 109.943 191.957 96.733 191.957C87.0739 191.957 78.6222 193.52 71.3778 196.645C64.2045 199.77 58.5938 204.067 54.5455 209.535C50.5682 215.004 48.5795 221.219 48.5795 228.179C48.5795 234.003 49.9645 239.01 52.7344 243.2C55.5753 247.32 59.1974 250.764 63.6009 253.534C68.0043 256.233 72.6207 258.47 77.4503 260.246C82.2798 261.95 86.7188 263.335 90.767 264.4L112.926 270.366C118.608 271.858 124.929 273.918 131.889 276.545C138.92 279.173 145.632 282.76 152.024 287.305C158.487 291.78 163.814 297.533 168.004 304.564C172.195 311.595 174.29 320.224 174.29 330.452C174.29 342.241 171.2 352.895 165.021 362.412C158.913 371.929 149.964 379.493 138.175 385.104C126.456 390.714 112.216 393.52 95.4545 393.52C79.8295 393.52 66.2997 390.998 54.8651 385.956C43.5014 380.913 34.5526 373.882 28.0185 364.862C21.5554 355.842 17.8977 345.366 17.0455 333.435H44.3182C45.0284 341.673 47.7983 348.491 52.6278 353.889C57.5284 359.216 63.7074 363.193 71.1648 365.821C78.6932 368.378 86.7898 369.656 95.4545 369.656C105.54 369.656 114.595 368.023 122.621 364.756C130.646 361.418 137.003 356.801 141.69 350.906C146.378 344.94 148.722 337.98 148.722 330.025C148.722 322.781 146.697 316.886 142.649 312.341C138.601 307.795 133.274 304.102 126.669 301.261C120.064 298.42 112.926 295.935 105.256 293.804L78.4091 286.133C61.3636 281.233 47.8693 274.237 37.9261 265.146C27.983 256.055 23.0114 244.159 23.0114 229.457C23.0114 217.241 26.3139 206.588 32.919 197.497C39.5952 188.335 48.544 181.233 59.7656 176.19C71.0582 171.077 83.6648 168.52 97.5852 168.52C111.648 168.52 124.148 171.041 135.085 176.084C146.023 181.055 154.688 187.873 161.08 196.538C167.543 205.203 170.952 215.04 171.307 226.048H145.739ZM213.894 389.685V370.508L285.911 291.673C294.363 282.44 301.323 274.415 306.792 267.596C312.26 260.707 316.309 254.244 318.936 248.207C321.635 242.099 322.985 235.707 322.985 229.031C322.985 221.361 321.138 214.72 317.445 209.109C313.823 203.498 308.851 199.166 302.53 196.112C296.209 193.058 289.107 191.531 281.223 191.531C272.843 191.531 265.527 193.271 259.277 196.751C253.098 200.16 248.304 204.954 244.895 211.133C241.557 217.312 239.888 224.557 239.888 232.866H214.746C214.746 220.082 217.694 208.861 223.588 199.202C229.483 189.543 237.509 182.014 247.665 176.616C257.892 171.219 269.363 168.52 282.076 168.52C294.86 168.52 306.188 171.219 316.06 176.616C325.932 182.014 333.674 189.294 339.284 198.456C344.895 207.618 347.701 217.81 347.701 229.031C347.701 237.057 346.245 244.905 343.333 252.575C340.492 260.175 335.52 268.662 328.418 278.037C321.387 287.341 311.621 298.704 299.121 312.128L250.115 364.543V366.247H351.536V389.685H213.894ZM472.239 171.503V389.685H445.819V199.202H444.54L391.273 234.571V207.724L445.819 171.503H472.239Z" fill="black"/>
<g clip-path="url(#clip1_1_1830)">
<mask id="mask1_1_1830" style="mask-type:luminance" maskUnits="userSpaceOnUse" x="25" y="190" width="88" height="134">
<path d="M113 190.577H25V323.621H113V190.577Z" fill="white"/>
</mask>
<g mask="url(#mask1_1_1830)">
<path d="M62.4 287.337H75.6V226.862H62.4V287.337Z" fill="#D2580B" stroke="#D2580B"/>
</g>
<mask id="mask2_1_1830" style="mask-type:luminance" maskUnits="userSpaceOnUse" x="25" y="190" width="88" height="134">
<path d="M113 190.577H25V323.621H113V190.577Z" fill="white"/>
</mask>
<g mask="url(#mask2_1_1830)">
<path d="M69 287.337V317.574" stroke="#D2580B" stroke-linecap="square" stroke-linejoin="round"/>
</g>
<mask id="mask3_1_1830" style="mask-type:luminance" maskUnits="userSpaceOnUse" x="25" y="190" width="88" height="134">
<path d="M113 190.577H25V323.621H113V190.577Z" fill="white"/>
</mask>
<g mask="url(#mask3_1_1830)">
<path d="M69 226.862V196.625" stroke="#D2580B" stroke-linecap="square" stroke-linejoin="round"/>
</g>
<mask id="mask4_1_1830" style="mask-type:luminance" maskUnits="userSpaceOnUse" x="25" y="190" width="88" height="134">
<path d="M113 190.577H25V323.621H113V190.577Z" fill="white"/>
</mask>
<g mask="url(#mask4_1_1830)">
<path d="M65.7 317.574H72.3" stroke="#D2580B" stroke-linecap="square" stroke-linejoin="round"/>
</g>
<mask id="mask5_1_1830" style="mask-type:luminance" maskUnits="userSpaceOnUse" x="25" y="190" width="88" height="134">
<path d="M113 190.577H25V323.621H113V190.577Z" fill="white"/>
</mask>
<g mask="url(#mask5_1_1830)">
<path d="M65.7 196.625H72.3" stroke="#D2580B" stroke-linecap="square" stroke-linejoin="round"/>
</g>
<mask id="mask6_1_1830" style="mask-type:luminance" maskUnits="userSpaceOnUse" x="25" y="190" width="88" height="134">
<path d="M113 190.577H25V323.621H113V190.577Z" fill="white"/>
</mask>
<g mask="url(#mask6_1_1830)">
<path d="M62.4 257.099H75.6" stroke="black" stroke-linecap="square" stroke-linejoin="round"/>
</g>
</g>
<g clip-path="url(#clip2_1_1830)">
<mask id="mask7_1_1830" style="mask-type:luminance" maskUnits="userSpaceOnUse" x="47" y="203" width="88" height="134">
<path d="M135 203.762H47V336.806H135V203.762Z" fill="white"/>
</mask>
<g mask="url(#mask7_1_1830)">
<path d="M84.4 300.521H97.6V240.047H84.4V300.521Z" fill="#D2580B" stroke="#D2580B"/>
</g>
<mask id="mask8_1_1830" style="mask-type:luminance" maskUnits="userSpaceOnUse" x="47" y="203" width="88" height="134">
<path d="M135 203.762H47V336.806H135V203.762Z" fill="white"/>
</mask>
<g mask="url(#mask8_1_1830)">
<path d="M91 300.521V330.759" stroke="#D2580B" stroke-linecap="square" stroke-linejoin="round"/>
</g>
<mask id="mask9_1_1830" style="mask-type:luminance" maskUnits="userSpaceOnUse" x="47" y="203" width="88" height="134">
<path d="M135 203.762H47V336.806H135V203.762Z" fill="white"/>
</mask>
<g mask="url(#mask9_1_1830)">
<path d="M91 240.047V209.809" stroke="#D2580B" stroke-linecap="square" stroke-linejoin="round"/>
</g>
<mask id="mask10_1_1830" style="mask-type:luminance" maskUnits="userSpaceOnUse" x="47" y="203" width="88" height="134">
<path d="M135 203.762H47V336.806H135V203.762Z" fill="white"/>
</mask>
<g mask="url(#mask10_1_1830)">
<path d="M87.7 330.759H94.3" stroke="#D2580B" stroke-linecap="square" stroke-linejoin="round"/>
</g>
<mask id="mask11_1_1830" style="mask-type:luminance" maskUnits="userSpaceOnUse" x="47" y="203" width="88" height="134">
<path d="M135 203.762H47V336.806H135V203.762Z" fill="white"/>
</mask>
<g mask="url(#mask11_1_1830)">
<path d="M87.7 209.809H94.3" stroke="#D2580B" stroke-linecap="square" stroke-linejoin="round"/>
</g>
<mask id="mask12_1_1830" style="mask-type:luminance" maskUnits="userSpaceOnUse" x="47" y="203" width="88" height="134">
<path d="M135 203.762H47V336.806H135V203.762Z" fill="white"/>
</mask>
<g mask="url(#mask12_1_1830)">
<path d="M84.4 270.284H97.6" stroke="black" stroke-linecap="square" stroke-linejoin="round"/>
</g>
</g>
<g clip-path="url(#clip3_1_1830)">
<mask id="mask13_1_1830" style="mask-type:luminance" maskUnits="userSpaceOnUse" x="69" y="216" width="88" height="134">
<path d="M157 216.946H69V349.991H157V216.946Z" fill="white"/>
</mask>
<g mask="url(#mask13_1_1830)">
<path d="M106.4 313.706H119.6V253.231H106.4V313.706Z" fill="#D2580B" stroke="#D2580B"/>
</g>
<mask id="mask14_1_1830" style="mask-type:luminance" maskUnits="userSpaceOnUse" x="69" y="216" width="88" height="134">
<path d="M157 216.946H69V349.991H157V216.946Z" fill="white"/>
</mask>
<g mask="url(#mask14_1_1830)">
<path d="M113 313.706V343.943" stroke="#D2580B" stroke-linecap="square" stroke-linejoin="round"/>
</g>
<mask id="mask15_1_1830" style="mask-type:luminance" maskUnits="userSpaceOnUse" x="69" y="216" width="88" height="134">
<path d="M157 216.946H69V349.991H157V216.946Z" fill="white"/>
</mask>
<g mask="url(#mask15_1_1830)">
<path d="M113 253.231V222.994" stroke="#D2580B" stroke-linecap="square" stroke-linejoin="round"/>
</g>
<mask id="mask16_1_1830" style="mask-type:luminance" maskUnits="userSpaceOnUse" x="69" y="216" width="88" height="134">
<path d="M157 216.946H69V349.991H157V216.946Z" fill="white"/>
</mask>
<g mask="url(#mask16_1_1830)">
<path d="M109.7 343.943H116.3" stroke="#D2580B" stroke-linecap="square" stroke-linejoin="round"/>
</g>
<mask id="mask17_1_1830" style="mask-type:luminance" maskUnits="userSpaceOnUse" x="69" y="216" width="88" height="134">
<path d="M157 216.946H69V349.991H157V216.946Z" fill="white"/>
</mask>
<g mask="url(#mask17_1_1830)">
<path d="M109.7 222.994H116.3" stroke="#D2580B" stroke-linecap="square" stroke-linejoin="round"/>
</g>
<mask id="mask18_1_1830" style="mask-type:luminance" maskUnits="userSpaceOnUse" x="69" y="216" width="88" height="134">
<path d="M157 216.946H69V349.991H157V216.946Z" fill="white"/>
</mask>
<g mask="url(#mask18_1_1830)">
<path d="M106.4 283.469H119.6" stroke="black" stroke-linecap="square" stroke-linejoin="round"/>
</g>
</g>
<g clip-path="url(#clip4_1_1830)">
<mask id="mask19_1_1830" style="mask-type:luminance" maskUnits="userSpaceOnUse" x="91" y="230" width="88" height="134">
<path d="M179 230.131H91V363.175H179V230.131Z" fill="white"/>
</mask>
<g mask="url(#mask19_1_1830)">
<path d="M128.4 326.89H141.6V266.416H128.4V326.89Z" fill="#D2580B" stroke="#D2580B"/>
</g>
<mask id="mask20_1_1830" style="mask-type:luminance" maskUnits="userSpaceOnUse" x="91" y="230" width="88" height="134">
<path d="M179 230.131H91V363.175H179V230.131Z" fill="white"/>
</mask>
<g mask="url(#mask20_1_1830)">
<path d="M135 326.89V357.128" stroke="#D2580B" stroke-linecap="square" stroke-linejoin="round"/>
</g>
<mask id="mask21_1_1830" style="mask-type:luminance" maskUnits="userSpaceOnUse" x="91" y="230" width="88" height="134">
<path d="M179 230.131H91V363.175H179V230.131Z" fill="white"/>
</mask>
<g mask="url(#mask21_1_1830)">
<path d="M135 266.416V236.178" stroke="#D2580B" stroke-linecap="square" stroke-linejoin="round"/>
</g>
<mask id="mask22_1_1830" style="mask-type:luminance" maskUnits="userSpaceOnUse" x="91" y="230" width="88" height="134">
<path d="M179 230.131H91V363.175H179V230.131Z" fill="white"/>
</mask>
<g mask="url(#mask22_1_1830)">
<path d="M131.7 357.128H138.3" stroke="#D2580B" stroke-linecap="square" stroke-linejoin="round"/>
</g>
<mask id="mask23_1_1830" style="mask-type:luminance" maskUnits="userSpaceOnUse" x="91" y="230" width="88" height="134">
<path d="M179 230.131H91V363.175H179V230.131Z" fill="white"/>
</mask>
<g mask="url(#mask23_1_1830)">
<path d="M131.7 236.178H138.3" stroke="#D2580B" stroke-linecap="square" stroke-linejoin="round"/>
</g>
<mask id="mask24_1_1830" style="mask-type:luminance" maskUnits="userSpaceOnUse" x="91" y="230" width="88" height="134">
<path d="M179 230.131H91V363.175H179V230.131Z" fill="white"/>
</mask>
<g mask="url(#mask24_1_1830)">
<path d="M128.4 296.653H141.6" stroke="black" stroke-linecap="square" stroke-linejoin="round"/>
</g>
</g>
<g clip-path="url(#clip5_1_1830)">
<mask id="mask25_1_1830" style="mask-type:luminance" maskUnits="userSpaceOnUse" x="212" y="248" width="88" height="134">
<path d="M300 248.11H212V381.154H300V248.11Z" fill="white"/>
</mask>
<g mask="url(#mask25_1_1830)">
<path d="M249.4 344.869H262.6V284.395H249.4V344.869Z" fill="#D2580B" stroke="#D2580B"/>
</g>
<mask id="mask26_1_1830" style="mask-type:luminance" maskUnits="userSpaceOnUse" x="212" y="248" width="88" height="134">
<path d="M300 248.11H212V381.154H300V248.11Z" fill="white"/>
</mask>
<g mask="url(#mask26_1_1830)">
<path d="M256 344.869V375.107" stroke="#D2580B" stroke-linecap="square" stroke-linejoin="round"/>
</g>
<mask id="mask27_1_1830" style="mask-type:luminance" maskUnits="userSpaceOnUse" x="212" y="248" width="88" height="134">
<path d="M300 248.11H212V381.154H300V248.11Z" fill="white"/>
</mask>
<g mask="url(#mask27_1_1830)">
<path d="M256 284.395V254.157" stroke="#D2580B" stroke-linecap="square" stroke-linejoin="round"/>
</g>
<mask id="mask28_1_1830" style="mask-type:luminance" maskUnits="userSpaceOnUse" x="212" y="248" width="88" height="134">
<path d="M300 248.11H212V381.154H300V248.11Z" fill="white"/>
</mask>
<g mask="url(#mask28_1_1830)">
<path d="M252.7 375.107H259.3" stroke="#D2580B" stroke-linecap="square" stroke-linejoin="round"/>
</g>
<mask id="mask29_1_1830" style="mask-type:luminance" maskUnits="userSpaceOnUse" x="212" y="248" width="88" height="134">
<path d="M300 248.11H212V381.154H300V248.11Z" fill="white"/>
</mask>
<g mask="url(#mask29_1_1830)">
<path d="M252.7 254.157H259.3" stroke="#D2580B" stroke-linecap="square" stroke-linejoin="round"/>
</g>
<mask id="mask30_1_1830" style="mask-type:luminance" maskUnits="userSpaceOnUse" x="212" y="248" width="88" height="134">
<path d="M300 248.11H212V381.154H300V248.11Z" fill="white"/>
</mask>
<g mask="url(#mask30_1_1830)">
<path d="M249.4 314.632H262.6" stroke="black" stroke-linecap="square" stroke-linejoin="round"/>
</g>
</g>
<g clip-path="url(#clip6_1_1830)">
<mask id="mask31_1_1830" style="mask-type:luminance" maskUnits="userSpaceOnUse" x="234" y="216" width="88" height="134">
<path d="M322 216.946H234V349.991H322V216.946Z" fill="white"/>
</mask>
<g mask="url(#mask31_1_1830)">
<path d="M271.4 313.706H284.6V253.231H271.4V313.706Z" fill="#D2580B" stroke="#D2580B"/>
</g>
<mask id="mask32_1_1830" style="mask-type:luminance" maskUnits="userSpaceOnUse" x="234" y="216" width="88" height="134">
<path d="M322 216.946H234V349.991H322V216.946Z" fill="white"/>
</mask>
<g mask="url(#mask32_1_1830)">
<path d="M278 313.706V343.943" stroke="#D2580B" stroke-linecap="square" stroke-linejoin="round"/>
</g>
<mask id="mask33_1_1830" style="mask-type:luminance" maskUnits="userSpaceOnUse" x="234" y="216" width="88" height="134">
<path d="M322 216.946H234V349.991H322V216.946Z" fill="white"/>
</mask>
<g mask="url(#mask33_1_1830)">
<path d="M278 253.231V222.994" stroke="#D2580B" stroke-linecap="square" stroke-linejoin="round"/>
</g>
<mask id="mask34_1_1830" style="mask-type:luminance" maskUnits="userSpaceOnUse" x="234" y="216" width="88" height="134">
<path d="M322 216.946H234V349.991H322V216.946Z" fill="white"/>
</mask>
<g mask="url(#mask34_1_1830)">
<path d="M274.7 343.943H281.3" stroke="#D2580B" stroke-linecap="square" stroke-linejoin="round"/>
</g>
<mask id="mask35_1_1830" style="mask-type:luminance" maskUnits="userSpaceOnUse" x="234" y="216" width="88" height="134">
<path d="M322 216.946H234V349.991H322V216.946Z" fill="white"/>
</mask>
<g mask="url(#mask35_1_1830)">
<path d="M274.7 222.994H281.3" stroke="#D2580B" stroke-linecap="square" stroke-linejoin="round"/>
</g>
<mask id="mask36_1_1830" style="mask-type:luminance" maskUnits="userSpaceOnUse" x="234" y="216" width="88" height="134">
<path d="M322 216.946H234V349.991H322V216.946Z" fill="white"/>
</mask>
<g mask="url(#mask36_1_1830)">
<path d="M271.4 283.469H284.6" stroke="black" stroke-linecap="square" stroke-linejoin="round"/>
</g>
</g>
<g clip-path="url(#clip7_1_1830)">
<mask id="mask37_1_1830" style="mask-type:luminance" maskUnits="userSpaceOnUse" x="256" y="190" width="88" height="134">
<path d="M344 190.577H256V323.621H344V190.577Z" fill="white"/>
</mask>
<g mask="url(#mask37_1_1830)">
<path d="M293.4 287.337H306.6V226.862H293.4V287.337Z" fill="#D2580B" stroke="#D2580B"/>
</g>
<mask id="mask38_1_1830" style="mask-type:luminance" maskUnits="userSpaceOnUse" x="256" y="190" width="88" height="134">
<path d="M344 190.577H256V323.621H344V190.577Z" fill="white"/>
</mask>
<g mask="url(#mask38_1_1830)">
<path d="M300 287.337V317.574" stroke="#D2580B" stroke-linecap="square" stroke-linejoin="round"/>
</g>
<mask id="mask39_1_1830" style="mask-type:luminance" maskUnits="userSpaceOnUse" x="256" y="190" width="88" height="134">
<path d="M344 190.577H256V323.621H344V190.577Z" fill="white"/>
</mask>
<g mask="url(#mask39_1_1830)">
<path d="M300 226.862V196.625" stroke="#D2580B" stroke-linecap="square" stroke-linejoin="round"/>
</g>
<mask id="mask40_1_1830" style="mask-type:luminance" maskUnits="userSpaceOnUse" x="256" y="190" width="88" height="134">
<path d="M344 190.577H256V323.621H344V190.577Z" fill="white"/>
</mask>
<g mask="url(#mask40_1_1830)">
<path d="M296.7 317.574H303.3" stroke="#D2580B" stroke-linecap="square" stroke-linejoin="round"/>
</g>
<mask id="mask41_1_1830" style="mask-type:luminance" maskUnits="userSpaceOnUse" x="256" y="190" width="88" height="134">
<path d="M344 190.577H256V323.621H344V190.577Z" fill="white"/>
</mask>
<g mask="url(#mask41_1_1830)">
<path d="M296.7 196.625H303.3" stroke="#D2580B" stroke-linecap="square" stroke-linejoin="round"/>
</g>
<mask id="mask42_1_1830" style="mask-type:luminance" maskUnits="userSpaceOnUse" x="256" y="190" width="88" height="134">
<path d="M344 190.577H256V323.621H344V190.577Z" fill="white"/>
</mask>
<g mask="url(#mask42_1_1830)">
<path d="M293.4 257.099H306.6" stroke="black" stroke-linecap="square" stroke-linejoin="round"/>
</g>
</g>
<g clip-path="url(#clip8_1_1830)">
<mask id="mask43_1_1830" style="mask-type:luminance" maskUnits="userSpaceOnUse" x="278" y="180" width="88" height="135">
<path d="M366 180.988H278V314.033H366V180.988Z" fill="white"/>
</mask>
<g mask="url(#mask43_1_1830)">
<path d="M315.4 277.748H328.6V217.273H315.4V277.748Z" fill="#D2580B" stroke="#D2580B"/>
</g>
<mask id="mask44_1_1830" style="mask-type:luminance" maskUnits="userSpaceOnUse" x="278" y="180" width="88" height="135">
<path d="M366 180.988H278V314.033H366V180.988Z" fill="white"/>
</mask>
<g mask="url(#mask44_1_1830)">
<path d="M322 277.748V307.985" stroke="#D2580B" stroke-linecap="square" stroke-linejoin="round"/>
</g>
<mask id="mask45_1_1830" style="mask-type:luminance" maskUnits="userSpaceOnUse" x="278" y="180" width="88" height="135">
<path d="M366 180.988H278V314.033H366V180.988Z" fill="white"/>
</mask>
<g mask="url(#mask45_1_1830)">
<path d="M322 217.273V187.036" stroke="#D2580B" stroke-linecap="square" stroke-linejoin="round"/>
</g>
<mask id="mask46_1_1830" style="mask-type:luminance" maskUnits="userSpaceOnUse" x="278" y="180" width="88" height="135">
<path d="M366 180.988H278V314.033H366V180.988Z" fill="white"/>
</mask>
<g mask="url(#mask46_1_1830)">
<path d="M318.7 307.985H325.3" stroke="#D2580B" stroke-linecap="square" stroke-linejoin="round"/>
</g>
<mask id="mask47_1_1830" style="mask-type:luminance" maskUnits="userSpaceOnUse" x="278" y="180" width="88" height="135">
<path d="M366 180.988H278V314.033H366V180.988Z" fill="white"/>
</mask>
<g mask="url(#mask47_1_1830)">
<path d="M318.7 187.036H325.3" stroke="#D2580B" stroke-linecap="square" stroke-linejoin="round"/>
</g>
<mask id="mask48_1_1830" style="mask-type:luminance" maskUnits="userSpaceOnUse" x="278" y="180" width="88" height="135">
<path d="M366 180.988H278V314.033H366V180.988Z" fill="white"/>
</mask>
<g mask="url(#mask48_1_1830)">
<path d="M315.4 247.51H328.6" stroke="black" stroke-linecap="square" stroke-linejoin="round"/>
</g>
</g>
<g clip-path="url(#clip9_1_1830)">
<mask id="mask49_1_1830" style="mask-type:luminance" maskUnits="userSpaceOnUse" x="415" y="-2" width="88" height="535">
<path d="M503 -1.04788H415V532.314H503V-1.04788Z" fill="white"/>
</mask>
<g mask="url(#mask49_1_1830)">
<path d="M452.4 386.852H465.6V144.414H452.4V386.852Z" fill="#D2580B" stroke="#D2580B"/>
</g>
<mask id="mask50_1_1830" style="mask-type:luminance" maskUnits="userSpaceOnUse" x="415" y="-2" width="88" height="535">
<path d="M503 -1.04788H415V532.314H503V-1.04788Z" fill="white"/>
</mask>
<g mask="url(#mask50_1_1830)">
<path d="M459 386.852V508.07" stroke="#D2580B" stroke-linecap="square" stroke-linejoin="round"/>
</g>
<mask id="mask51_1_1830" style="mask-type:luminance" maskUnits="userSpaceOnUse" x="415" y="-2" width="88" height="535">
<path d="M503 -1.04788H415V532.314H503V-1.04788Z" fill="white"/>
</mask>
<g mask="url(#mask51_1_1830)">
<path d="M459 144.414V23.1959" stroke="#D2580B" stroke-linecap="square" stroke-linejoin="round"/>
</g>
<mask id="mask52_1_1830" style="mask-type:luminance" maskUnits="userSpaceOnUse" x="415" y="-2" width="88" height="535">
<path d="M503 -1.04788H415V532.314H503V-1.04788Z" fill="white"/>
</mask>
<g mask="url(#mask52_1_1830)">
<path d="M455.7 508.07H462.3" stroke="#D2580B" stroke-linecap="square" stroke-linejoin="round"/>
</g>
<mask id="mask53_1_1830" style="mask-type:luminance" maskUnits="userSpaceOnUse" x="415" y="-2" width="88" height="535">
<path d="M503 -1.04788H415V532.314H503V-1.04788Z" fill="white"/>
</mask>
<g mask="url(#mask53_1_1830)">
<path d="M455.7 23.1959H462.3" stroke="#D2580B" stroke-linecap="square" stroke-linejoin="round"/>
</g>
<mask id="mask54_1_1830" style="mask-type:luminance" maskUnits="userSpaceOnUse" x="415" y="-2" width="88" height="535">
<path d="M503 -1.04788H415V532.314H503V-1.04788Z" fill="white"/>
</mask>
<g mask="url(#mask54_1_1830)">
<path d="M452.4 265.633H465.6" stroke="black" stroke-linecap="square" stroke-linejoin="round"/>
</g>
</g>
<g clip-path="url(#clip10_1_1830)">
<mask id="mask55_1_1830" style="mask-type:luminance" maskUnits="userSpaceOnUse" x="152" y="263" width="89" height="158">
<path d="M240.6 263.092H152.6V420.109H240.6V263.092Z" fill="white"/>
</mask>
<g mask="url(#mask55_1_1830)">
<path d="M190 377.286H203.2V305.915H190V377.286Z" fill="#D2580B" stroke="#D2580B"/>
</g>
<mask id="mask56_1_1830" style="mask-type:luminance" maskUnits="userSpaceOnUse" x="152" y="263" width="89" height="158">
<path d="M240.6 263.092H152.6V420.109H240.6V263.092Z" fill="white"/>
</mask>
<g mask="url(#mask56_1_1830)">
<path d="M196.6 377.286V412.971" stroke="#D2580B" stroke-linecap="square" stroke-linejoin="round"/>
</g>
<mask id="mask57_1_1830" style="mask-type:luminance" maskUnits="userSpaceOnUse" x="152" y="263" width="89" height="158">
<path d="M240.6 263.092H152.6V420.109H240.6V263.092Z" fill="white"/>
</mask>
<g mask="url(#mask57_1_1830)">
<path d="M196.6 305.915V270.229" stroke="#D2580B" stroke-linecap="square" stroke-linejoin="round"/>
</g>
<mask id="mask58_1_1830" style="mask-type:luminance" maskUnits="userSpaceOnUse" x="152" y="263" width="89" height="158">
<path d="M240.6 263.092H152.6V420.109H240.6V263.092Z" fill="white"/>
</mask>
<g mask="url(#mask58_1_1830)">
<path d="M193.3 412.972H199.9" stroke="#D2580B" stroke-linecap="square" stroke-linejoin="round"/>
</g>
<mask id="mask59_1_1830" style="mask-type:luminance" maskUnits="userSpaceOnUse" x="152" y="263" width="89" height="158">
<path d="M240.6 263.092H152.6V420.109H240.6V263.092Z" fill="white"/>
</mask>
<g mask="url(#mask59_1_1830)">
<path d="M193.3 270.229H199.9" stroke="#D2580B" stroke-linecap="square" stroke-linejoin="round"/>
</g>
<mask id="mask60_1_1830" style="mask-type:luminance" maskUnits="userSpaceOnUse" x="152" y="263" width="89" height="158">
<path d="M240.6 263.092H152.6V420.109H240.6V263.092Z" fill="white"/>
</mask>
<g mask="url(#mask60_1_1830)">
<path d="M190 341.6H203.2" stroke="black" stroke-linecap="square" stroke-linejoin="round"/>
</g>
</g>
<defs>
<clipPath id="clip0_1_1830">
<rect width="379" height="432.694" fill="white" transform="translate(7)"/>
</clipPath>
<clipPath id="clip1_1_1830">
<rect width="88" height="133.044" fill="white" transform="translate(25 190.577)"/>
</clipPath>
<clipPath id="clip2_1_1830">
<rect width="88" height="133.044" fill="white" transform="translate(47 203.762)"/>
</clipPath>
<clipPath id="clip3_1_1830">
<rect width="88" height="133.044" fill="white" transform="translate(69 216.946)"/>
</clipPath>
<clipPath id="clip4_1_1830">
<rect width="88" height="133.044" fill="white" transform="translate(91 230.131)"/>
</clipPath>
<clipPath id="clip5_1_1830">
<rect width="88" height="133.044" fill="white" transform="translate(212 248.11)"/>
</clipPath>
<clipPath id="clip6_1_1830">
<rect width="88" height="133.044" fill="white" transform="translate(234 216.946)"/>
</clipPath>
<clipPath id="clip7_1_1830">
<rect width="88" height="133.044" fill="white" transform="translate(256 190.577)"/>
</clipPath>
<clipPath id="clip8_1_1830">
<rect width="88" height="133.044" fill="white" transform="translate(278 180.988)"/>
</clipPath>
<clipPath id="clip9_1_1830">
<rect width="88" height="496.22" fill="white" transform="translate(415 16.7804)"/>
</clipPath>
<clipPath id="clip10_1_1830">
<rect width="88" height="157.016" fill="white" transform="translate(151 262.493)"/>
</clipPath>
</defs>
</svg>
