<svg width="24" height="24" viewBox="0 0 24 24" fill="none" xmlns="http://www.w3.org/2000/svg">
<path fill-rule="evenodd" clip-rule="evenodd" d="M7.22581 5.10441C6.94291 4.83118 6.56401 4.67999 6.17072 4.6834C5.77743 4.68682 5.40122 4.84457 5.12311 5.12268C4.845 5.40079 4.68725 5.777 4.68383 6.17029C4.68041 6.56358 4.8316 6.94248 5.10484 7.22538L9.87927 11.9998L5.10484 16.7742C4.82338 17.0555 4.66518 17.437 4.66504 17.8349C4.66497 18.032 4.70371 18.2271 4.77904 18.4091C4.85437 18.5912 4.96482 18.7566 5.10409 18.896C5.24335 19.0353 5.4087 19.1459 5.5907 19.2213C5.77269 19.2968 5.96777 19.3357 6.16479 19.3358C6.56269 19.3359 6.94435 19.178 7.22581 18.8967L12.0002 14.1223L16.7747 18.8967C17.0561 19.1782 17.4379 19.3363 17.8359 19.3363C18.2339 19.3363 18.6157 19.1782 18.8971 18.8967C19.1786 18.6152 19.3367 18.2335 19.3367 17.8355C19.3367 17.4374 19.1786 17.0557 18.8971 16.7742L14.1227 11.9998L18.8971 7.22538C19.0364 7.08601 19.1468 6.92059 19.2222 6.73854C19.2975 6.55649 19.3362 6.36138 19.3362 6.16436C19.3361 5.96734 19.2972 5.77227 19.2218 5.59027C19.1463 5.40827 19.0357 5.24292 18.8964 5.10366C18.757 4.96439 18.5916 4.85394 18.4095 4.77861C18.2275 4.70328 18.0324 4.66454 17.8354 4.66461C17.6383 4.66468 17.4433 4.70356 17.2613 4.77902C17.0793 4.85448 16.9139 4.96505 16.7747 5.10441L12.0002 9.87884L7.22581 5.10441Z" fill="#D4001A"/>
</svg>
