<svg width="168" height="32" viewBox="0 0 168 32" fill="none" xmlns="http://www.w3.org/2000/svg">
<path d="M29.0445 32L22.2469 21.7095H32V17.8405H0V21.7364H9.75315L2.9555 32H8.00672L15.9866 19.9093L23.9664 32H29.0445ZM32 14.0521V10.1562H22.4349L29.152 0H24.0739L15.9866 12.2519L7.92611 0H2.84803L9.56507 10.1562H0V14.0789H32V14.0521Z" fill="white"/>
<path d="M45.0908 20.9438C45.2131 26.5822 49.6558 30.5863 56.5439 30.5863C62.6984 30.5863 67.1003 26.9499 67.1003 21.8835C67.1411 16.2451 62.5354 14.7334 57.8074 13.8753C53.324 13.099 50.3894 12.4862 50.3894 9.54439C50.3894 6.84776 52.6311 5.45859 55.851 5.45859C59.2747 5.45859 61.6795 7.41977 62.0055 10.3207H66.6112C66.3667 5.17258 62.0871 1.49536 55.851 1.49536C49.8595 1.49536 45.7022 4.92743 45.7022 9.87125C45.7022 15.5505 50.1856 17.0623 54.9136 17.8794C59.4378 18.6966 62.4131 19.3503 62.4131 22.3738C62.4131 25.1113 59.9676 26.623 56.5847 26.623C52.5904 26.623 49.9411 24.3759 49.6965 21.0255L45.0908 20.9438Z" fill="white"/>
<path d="M72.1232 24.6619C72.1232 28.4617 73.835 30.3411 77.8293 30.3411H82.0682V26.4596H78.726C77.1365 26.4596 76.5658 25.8467 76.5658 24.2124V13.3033H81.5791V9.42182H76.5658V3.57912H72.1232V9.42182H68.4957V13.3033H72.1232V24.6619Z" fill="white"/>
<path d="M93.1586 9.17667C87.9008 9.17667 84.4363 11.5873 83.988 15.7957H88.3084C88.6345 13.9162 90.3871 12.7313 92.9548 12.7313C95.8487 12.7313 97.5605 14.1613 97.5605 16.4903V17.7569H92.3435C86.4743 17.7569 83.3766 20.1675 83.3766 24.4576C83.3766 28.3391 86.4335 30.5863 90.9984 30.5863C94.2999 30.5863 96.297 29.238 97.7236 27.3585L98.0904 30.3411H101.922V16.7354C101.922 11.8324 98.7018 9.17667 93.1586 9.17667ZM91.7321 27.1542C89.3273 27.1542 87.86 25.9285 87.86 24.1716C87.86 22.0469 89.4089 21.0255 92.0989 21.0255H97.5605V21.7609C97.5198 24.9887 95.4003 27.1542 91.7321 27.1542Z" fill="white"/>
<path d="M125.162 22.8232H120.679C120.149 25.2747 118.274 26.8273 115.543 26.8273C111.997 26.8273 109.674 23.9673 109.674 19.8406C109.674 15.7548 111.997 12.9356 115.543 12.9356C118.193 12.9356 120.067 14.4882 120.638 16.858H125.162C124.347 12.1593 120.923 9.17667 115.666 9.17667C109.307 9.17667 105.15 13.4259 105.15 19.8406C105.15 26.2962 109.266 30.5863 115.543 30.5863C120.883 30.5863 124.347 27.6036 125.162 22.8232Z" fill="white"/>
<path d="M128.692 1.74051V30.3411H133.094V24.9887L136.803 21.0664L142.998 30.3411H148.215L139.941 17.8386L147.726 9.42182H142.631L133.094 19.6363V1.74051H128.692Z" fill="white"/>
<path d="M149.054 23.4361C149.176 27.9714 152.966 30.5863 158.51 30.5863C163.523 30.5863 167.273 28.0531 167.273 24.049C167.273 19.3912 163.401 18.3289 158.713 17.7977C155.738 17.43 153.741 17.2666 153.741 15.3054C153.741 13.6302 155.453 12.5679 158.02 12.5679C160.588 12.5679 162.422 13.9571 162.626 15.8365H166.906C166.62 11.5464 163.034 9.17667 157.939 9.17667C153.007 9.13581 149.461 11.7099 149.461 15.6731C149.461 20.004 153.211 20.9846 157.898 21.5567C161.077 21.9652 162.952 22.1695 162.952 24.3759C162.952 26.0919 161.118 27.1542 158.469 27.1542C155.453 27.1542 153.456 25.6016 153.293 23.4361H149.054Z" fill="white"/>
</svg>
