<svg width="177" height="26" viewBox="0 0 177 26" fill="none" xmlns="http://www.w3.org/2000/svg">
<path d="M0.368 20.096H0.944C0.944 19.088 1.064 18.728 1.448 18.728C2.144 18.728 3.08 20.48 6.104 20.48C8.6 20.48 11.12 18.752 11.12 15.608C11.12 12.368 9.2 11.024 6.056 8.312C4.28 6.776 2.48 5.552 2.48 3.752C2.48 2.48 3.344 1.304 5.336 1.304C7.856 1.304 9.584 3.392 9.68 6.344H10.256V0.704H9.68C9.68 1.76 9.584 1.976 9.32 1.976C8.744 1.976 7.664 0.319999 5.072 0.319999C2.456 0.319999 0.344 1.832 0.344 4.592C0.344 7.112 1.616 8.312 4.328 10.64C6.728 12.656 8.984 14.288 8.984 16.448C8.984 18.272 7.76 19.496 5.816 19.496C3.224 19.496 1.04 17.072 0.944 13.184H0.368V20.096ZM19.1208 14.72C19.0728 17.888 18.6408 19.064 17.5368 19.064C16.2168 19.064 16.0728 17.624 16.0728 15.272V8.336H18.8568V7.328H16.0728V3.896H15.3288C15.1128 6.392 14.1768 7.256 11.9688 7.328V8.336H13.8408V16.04C13.8408 19.256 14.9688 20.48 16.8648 20.48C19.1448 20.48 19.6488 18.464 19.6728 14.72H19.1208ZM30.7514 18.368C30.4634 19.136 30.2954 19.496 29.8874 19.496C29.4314 19.496 29.3594 19.112 29.3594 18.368V10.664C29.3594 8.048 27.8474 6.848 25.4474 6.848C23.1194 6.848 21.4154 7.904 21.4154 9.632C21.4154 10.688 21.8954 11.288 22.7354 11.288C23.5034 11.288 24.0074 10.904 24.0074 10.328C24.0074 9.68 23.6234 9.416 23.6234 8.84C23.6234 8.12 24.3434 7.688 25.2794 7.688C26.8874 7.688 27.1034 8.816 27.1034 10.616V11.744L25.9754 12.272C23.4314 13.424 20.7434 14.384 20.7434 17.456C20.7434 19.304 21.7754 20.48 23.4554 20.48C25.5434 20.48 26.5994 18.752 27.0554 18.008H27.1034V18.104C27.1034 19.592 27.7274 20.48 29.1434 20.48C30.5354 20.48 30.9674 19.592 31.3034 18.368H30.7514ZM24.5594 18.8C23.6234 18.8 22.9754 18.152 22.9754 16.856C22.9754 15.152 24.1994 14 26.0474 13.136L27.1034 12.632V17.072C26.1914 18.248 25.4954 18.8 24.5594 18.8ZM38.2346 9.968C38.3066 10.856 38.8106 11.288 39.6266 11.288C40.4426 11.288 40.8506 10.808 40.8506 9.992C40.8506 8.408 39.2906 6.848 37.1546 6.848C34.1786 6.848 32.0906 9.56 32.0906 13.904C32.0906 17.864 33.8186 20.48 36.7946 20.48C39.2426 20.48 40.7306 18.656 41.2346 15.008H40.6586C39.9386 17.984 39.0266 18.968 37.7786 18.968C35.8586 18.968 34.6826 16.808 34.6826 13.304C34.6826 10.04 35.4026 7.856 37.0106 7.856C37.8746 7.856 38.1386 8.672 38.2346 9.968ZM45.3731 17.528V0.655999L45.0371 0.319999L43.3331 1.16L41.5331 2.072L41.7971 2.576C43.1411 1.904 43.1171 2.192 43.1171 3.752V17.528C43.1171 19.064 42.8771 19.424 41.4131 19.424V20H47.0531V19.424C45.5891 19.424 45.3731 19.064 45.3731 17.528ZM51.4931 17.84L48.1331 11.792L50.4371 9.2C51.4691 8.024 52.2371 7.904 53.2691 7.904V7.328H48.7331V7.904C50.4851 7.904 50.1491 8.024 49.0931 9.176L45.8531 12.752L48.6851 17.84C49.4291 19.184 49.6211 19.424 47.9891 19.424V20H53.8931V19.424C52.8851 19.424 52.2611 19.184 51.4931 17.84ZM55.0209 20.24H55.5729C55.5729 19.76 55.6449 19.52 55.9569 19.52C56.4609 19.52 57.2289 20.48 59.1249 20.48C60.8769 20.48 62.4369 19.448 62.4369 17.192C62.4369 15.176 61.4049 14.144 59.2209 12.272C57.7809 11.024 56.8689 10.232 56.8689 9.128C56.8689 8.552 57.2289 7.856 58.2369 7.856C59.7729 7.856 60.8289 9.272 61.1649 11.048H61.7169V7.088H61.1649C61.1649 7.568 61.1649 7.808 60.8769 7.808C60.4689 7.808 59.8449 6.848 58.1409 6.848C56.2689 6.848 54.9969 8.072 54.9969 9.848C54.9969 11.696 56.2449 12.728 57.8769 14.168C59.5089 15.608 60.5649 16.496 60.5649 17.888C60.5649 18.872 60.0849 19.496 59.0529 19.496C57.1569 19.496 55.9089 17.744 55.5729 15.416H55.0209V20.24ZM68.6206 20H76.3486C81.3406 20 85.7566 16.976 85.7566 10.4C85.7566 3.824 81.5086 0.8 76.3486 0.8H68.6206V1.376C70.8526 1.376 71.1886 1.808 71.1886 3.272V17.528C71.1886 18.992 70.8526 19.424 68.6206 19.424V20ZM76.3486 19.016C75.3406 19.016 74.5486 18.896 73.8766 18.584V2.216C74.5486 1.904 75.3406 1.784 76.3486 1.784C80.5006 1.784 82.8046 5.096 82.8046 10.4C82.8046 15.704 80.5006 19.016 76.3486 19.016ZM95.375 14.96C94.703 17.792 93.599 18.704 92.447 18.704C90.551 18.704 89.567 16.352 89.567 13.088V12.992H95.927C95.927 9.488 94.583 6.848 91.847 6.848C88.919 6.848 87.239 10.064 87.239 13.76C87.239 17.864 88.895 20.48 91.631 20.48C93.863 20.48 95.447 18.656 95.951 14.96H95.375ZM91.751 7.856C93.191 7.856 93.623 9.704 93.623 12.008H89.591C89.711 9.584 90.335 7.856 91.751 7.856ZM104.464 9.728L102.472 16.688H102.4L100.408 9.728C99.9757 8.24 99.9757 7.904 101.392 7.904V7.328H95.9197V7.904C96.9277 7.904 97.3597 8.216 97.7917 9.728L100.984 20.552H102.376L105.448 9.728C105.88 8.24 106.288 7.904 107.32 7.904V7.328H103.36V7.904C104.896 7.904 104.896 8.24 104.464 9.728ZM115.578 14.96C114.906 17.792 113.802 18.704 112.65 18.704C110.754 18.704 109.77 16.352 109.77 13.088V12.992H116.13C116.13 9.488 114.786 6.848 112.05 6.848C109.122 6.848 107.442 10.064 107.442 13.76C107.442 17.864 109.098 20.48 111.834 20.48C114.066 20.48 115.65 18.656 116.154 14.96H115.578ZM111.954 7.856C113.394 7.856 113.826 9.704 113.826 12.008H109.794C109.914 9.584 110.538 7.856 111.954 7.856ZM121.147 17.528V0.655999L120.811 0.319999L119.107 1.16L117.307 2.072L117.571 2.576C118.915 1.904 118.891 2.192 118.891 3.752V17.528C118.891 19.064 118.651 19.424 117.187 19.424V20H122.827V19.424C121.363 19.424 121.147 19.064 121.147 17.528ZM129.272 20.48C132.608 20.48 134.672 17.552 134.672 13.664C134.672 9.8 132.608 6.848 129.272 6.848C125.912 6.848 123.848 9.8 123.848 13.664C123.848 17.552 125.912 20.48 129.272 20.48ZM129.776 19.472C127.928 19.616 126.8 17.744 126.44 13.928C126.128 10.088 126.92 8.048 128.744 7.88C130.592 7.712 131.744 9.584 132.08 13.424C132.392 17.264 131.6 19.304 129.776 19.472ZM143.243 6.848C141.659 6.848 140.411 7.904 139.379 9.656H139.283V7.184L138.971 6.848L135.515 8.576L135.779 9.08C137.075 8.432 137.051 8.744 137.051 10.304V22.808C137.051 24.368 136.811 24.704 135.347 24.704V25.28H140.987V24.704C139.523 24.704 139.283 24.368 139.283 22.808V18.632H139.331C140.099 19.88 141.131 20.48 142.403 20.48C145.019 20.48 146.939 17.096 146.939 12.92C146.939 9.632 145.859 6.848 143.243 6.848ZM141.923 19.496C140.435 19.496 139.283 17.936 139.283 15.248V10.568C139.955 9.392 141.083 8.264 142.259 8.264C143.819 8.264 144.371 10.136 144.371 13.616C144.371 16.52 143.819 19.496 141.923 19.496ZM156.805 14.96C156.133 17.792 155.029 18.704 153.877 18.704C151.981 18.704 150.997 16.352 150.997 13.088V12.992H157.357C157.357 9.488 156.013 6.848 153.277 6.848C150.349 6.848 148.669 10.064 148.669 13.76C148.669 17.864 150.325 20.48 153.061 20.48C155.293 20.48 156.877 18.656 157.381 14.96H156.805ZM153.181 7.856C154.621 7.856 155.053 9.704 155.053 12.008H151.021C151.141 9.584 151.765 7.856 153.181 7.856ZM165.544 6.848C163.984 6.848 162.952 8.216 162.328 9.344H162.256V7.184L161.92 6.848L160.216 7.712L158.416 8.6L158.68 9.104C160.024 8.432 160 8.744 160 10.304V17.528C160 19.064 159.76 19.424 158.296 19.424V20H164.776V19.424C162.592 19.424 162.256 19.064 162.256 17.528V10.712C163.048 9.32 163.6 8.576 164.32 8.576C164.56 8.576 164.704 8.696 164.872 8.984C165.088 9.368 165.376 9.656 166.048 9.656C166.864 9.656 167.32 9.032 167.32 8.312C167.32 7.424 166.576 6.848 165.544 6.848ZM168.693 20.24H169.245C169.245 19.76 169.317 19.52 169.629 19.52C170.133 19.52 170.901 20.48 172.797 20.48C174.549 20.48 176.109 19.448 176.109 17.192C176.109 15.176 175.077 14.144 172.893 12.272C171.453 11.024 170.541 10.232 170.541 9.128C170.541 8.552 170.901 7.856 171.909 7.856C173.445 7.856 174.501 9.272 174.837 11.048H175.389V7.088H174.837C174.837 7.568 174.837 7.808 174.549 7.808C174.141 7.808 173.517 6.848 171.813 6.848C169.941 6.848 168.669 8.072 168.669 9.848C168.669 11.696 169.917 12.728 171.549 14.168C173.181 15.608 174.237 16.496 174.237 17.888C174.237 18.872 173.757 19.496 172.725 19.496C170.829 19.496 169.581 17.744 169.245 15.416H168.693V20.24Z" fill="white"/>
</svg>
