<svg width="170" height="48" viewBox="0 0 170 48" fill="none" xmlns="http://www.w3.org/2000/svg">
<path d="M11.68 36.416C9.99467 36.416 8.39467 36.1387 6.88 35.584C5.38667 35.0293 4.11733 34.144 3.072 32.928C2.048 31.712 1.42933 30.1547 1.216 28.256H5.344C5.70667 29.92 6.47467 31.1147 7.648 31.84C8.84267 32.5653 10.208 32.928 11.744 32.928C13.216 32.928 14.3893 32.6187 15.264 32C16.1387 31.3813 16.576 30.464 16.576 29.248C16.576 28.352 16.2987 27.6373 15.744 27.104C15.2107 26.5707 14.5387 26.176 13.728 25.92C12.9173 25.6427 11.7973 25.344 10.368 25.024C8.59733 24.64 7.15733 24.2453 6.048 23.84C4.93867 23.4347 3.98933 22.784 3.2 21.888C2.432 20.992 2.048 19.7653 2.048 18.208C2.048 16.736 2.41067 15.4773 3.136 14.432C3.86133 13.3653 4.85333 12.5653 6.112 12.032C7.392 11.4773 8.84267 11.2 10.464 11.2C12.896 11.2 14.9867 11.8293 16.736 13.088C18.5067 14.3467 19.584 16.2027 19.968 18.656H15.904C15.584 17.312 14.9333 16.32 13.952 15.68C12.9707 15.0187 11.7867 14.688 10.4 14.688C9.07733 14.688 8.032 14.9653 7.264 15.52C6.496 16.0747 6.112 16.8533 6.112 17.856C6.112 18.6453 6.35733 19.2747 6.848 19.744C7.36 20.2133 8 20.576 8.768 20.832C9.536 21.0667 10.5813 21.3333 11.904 21.632C13.7813 22.0373 15.296 22.464 16.448 22.912C17.6 23.3387 18.5813 24.0427 19.392 25.024C20.224 25.984 20.64 27.3067 20.64 28.992C20.64 31.2747 19.8507 33.088 18.272 34.432C16.7147 35.7547 14.5173 36.416 11.68 36.416ZM32.9745 36.352C31.2252 36.352 29.6678 35.9573 28.3025 35.168C26.9585 34.3573 25.9132 33.2587 25.1665 31.872C24.4198 30.464 24.0465 28.8853 24.0465 27.136C24.0465 25.5147 24.3772 23.9893 25.0385 22.56C25.7212 21.1307 26.7238 19.9787 28.0465 19.104C29.3905 18.2293 31.0012 17.792 32.8785 17.792C34.4572 17.792 35.9185 18.1333 37.2625 18.816C38.6278 19.4773 39.7158 20.4907 40.5265 21.856C41.3585 23.2213 41.7745 24.896 41.7745 26.88V27.84H27.8865C28.0145 28.672 28.2172 29.3333 28.4945 29.824C28.9212 30.8267 29.5292 31.616 30.3185 32.192C31.1292 32.768 32.0465 33.056 33.0705 33.056C34.1585 33.056 35.0865 32.7787 35.8545 32.224C36.6438 31.648 37.2092 30.9333 37.5505 30.08H41.4545C40.8785 31.936 39.8758 33.4507 38.4465 34.624C37.0172 35.776 35.1932 36.352 32.9745 36.352ZM37.8385 24.864C37.7532 24.2027 37.5612 23.6373 37.2625 23.168C36.8358 22.4213 36.2492 21.856 35.5025 21.472C34.7558 21.0667 33.9238 20.864 33.0065 20.864C32.0678 20.864 31.2358 21.0667 30.5105 21.472C29.7852 21.856 29.1985 22.4213 28.7505 23.168C28.4732 23.5947 28.2598 24.16 28.1105 24.864H37.8385ZM51.1162 36C49.7296 36 48.6842 35.68 47.9802 35.04C47.2762 34.4 46.9242 33.344 46.9242 31.872V21.248H44.2362V18.112H46.9242V11.584H50.7002V18.112H54.3482V21.248H50.7002V30.816C50.7002 31.4987 50.8069 32.0107 51.0202 32.352C51.2336 32.672 51.7029 32.832 52.4282 32.832H54.3162V36H51.1162ZM71.3222 36H67.5462V18.112H71.3222V36ZM69.4342 15.808C68.7516 15.808 68.1649 15.5947 67.6742 15.168C67.2049 14.72 66.9702 14.1653 66.9702 13.504C66.9702 12.8427 67.2049 12.2987 67.6742 11.872C68.1649 11.424 68.7516 11.2 69.4342 11.2C70.1382 11.2 70.7249 11.424 71.1942 11.872C71.6636 12.2987 71.8982 12.8427 71.8982 13.504C71.8982 14.1653 71.6636 14.72 71.1942 15.168C70.7249 15.5947 70.1382 15.808 69.4342 15.808ZM81.6925 36C80.3058 36 79.2605 35.68 78.5565 35.04C77.8525 34.4 77.5005 33.344 77.5005 31.872V21.248H74.8125V18.112H77.5005V11.584H81.2765V18.112H84.9245V21.248H81.2765V30.816C81.2765 31.4987 81.3832 32.0107 81.5965 32.352C81.8098 32.672 82.2792 32.832 83.0045 32.832H84.8925V36H81.6925ZM103.723 36C102.336 36 101.291 35.68 100.587 35.04C99.8825 34.4 99.5305 33.344 99.5305 31.872V21.248H96.8425V18.112H99.5305V11.584H103.307V18.112H106.955V21.248H103.307V30.816C103.307 31.4987 103.413 32.0107 103.627 32.352C103.84 32.672 104.309 32.832 105.035 32.832H106.923V36H103.723ZM114.57 36H110.794V18.112H114.57V36ZM112.682 15.808C111.999 15.808 111.412 15.5947 110.922 15.168C110.452 14.72 110.218 14.1653 110.218 13.504C110.218 12.8427 110.452 12.2987 110.922 11.872C111.412 11.424 111.999 11.2 112.682 11.2C113.386 11.2 113.972 11.424 114.442 11.872C114.911 12.2987 115.146 12.8427 115.146 13.504C115.146 14.1653 114.911 14.72 114.442 15.168C113.972 15.5947 113.386 15.808 112.682 15.808ZM127.436 42.88C125.324 42.88 123.511 42.4427 121.996 41.568C120.503 40.6933 119.585 39.2107 119.244 37.12H123.052C123.329 38.0587 123.82 38.7413 124.524 39.168C125.228 39.616 126.188 39.84 127.404 39.84C128.94 39.84 130.071 39.488 130.796 38.784C131.543 38.08 131.916 37.1093 131.916 35.872V33.312C131.169 34.3573 130.38 35.0827 129.548 35.488C128.716 35.8933 127.735 36.096 126.604 36.096C125.047 36.096 123.671 35.712 122.476 34.944C121.281 34.1547 120.353 33.0667 119.692 31.68C119.031 30.2933 118.7 28.7253 118.7 26.976C118.7 25.2053 119.031 23.6267 119.692 22.24C120.353 20.832 121.281 19.744 122.476 18.976C123.671 18.1867 125.036 17.792 126.572 17.792C127.724 17.792 128.705 17.9947 129.516 18.4C130.348 18.8053 131.148 19.52 131.916 20.544V18.112H135.692V35.008C135.692 37.8667 134.956 39.8933 133.484 41.088C132.033 42.2827 130.017 42.88 127.436 42.88ZM127.34 32.832C128.3 32.832 129.153 32.576 129.9 32.064C130.668 31.552 131.255 30.8587 131.66 29.984C132.087 29.088 132.3 28.0747 132.3 26.944C132.3 25.8347 132.087 24.832 131.66 23.936C131.233 23.04 130.647 22.336 129.9 21.824C129.153 21.312 128.3 21.056 127.34 21.056C125.889 21.056 124.716 21.6213 123.82 22.752C122.945 23.8613 122.508 25.2587 122.508 26.944C122.508 28.6507 122.945 30.0587 123.82 31.168C124.716 32.2773 125.889 32.832 127.34 32.832ZM140.48 36V11.584H144.256V20.544C145.003 19.52 145.771 18.8053 146.56 18.4C147.371 17.9947 148.277 17.792 149.28 17.792C151.947 17.792 153.771 18.7627 154.752 20.704C155.093 21.408 155.307 22.1227 155.392 22.848C155.477 23.5733 155.52 24.4693 155.52 25.536V36H151.744V25.536C151.744 23.744 151.435 22.5067 150.816 21.824C150.304 21.248 149.493 20.96 148.384 20.96C147.104 20.96 146.144 21.344 145.504 22.112C145.077 22.6027 144.757 23.264 144.544 24.096C144.352 24.9067 144.256 26.0053 144.256 27.392V36H140.48ZM165.407 36C164.021 36 162.975 35.68 162.271 35.04C161.567 34.4 161.215 33.344 161.215 31.872V21.248H158.527V18.112H161.215V11.584H164.991V18.112H168.639V21.248H164.991V30.816C164.991 31.4987 165.098 32.0107 165.311 32.352C165.525 32.672 165.994 32.832 166.719 32.832H168.607V36H165.407Z" fill="white" fill-opacity="0.32"/>
<path d="M11.68 36.416C9.99467 36.416 8.39467 36.1387 6.88 35.584C5.38667 35.0293 4.11733 34.144 3.072 32.928C2.048 31.712 1.42933 30.1547 1.216 28.256H5.344C5.70667 29.92 6.47467 31.1147 7.648 31.84C8.84267 32.5653 10.208 32.928 11.744 32.928C13.216 32.928 14.3893 32.6187 15.264 32C16.1387 31.3813 16.576 30.464 16.576 29.248C16.576 28.352 16.2987 27.6373 15.744 27.104C15.2107 26.5707 14.5387 26.176 13.728 25.92C12.9173 25.6427 11.7973 25.344 10.368 25.024C8.59733 24.64 7.15733 24.2453 6.048 23.84C4.93867 23.4347 3.98933 22.784 3.2 21.888C2.432 20.992 2.048 19.7653 2.048 18.208C2.048 16.736 2.41067 15.4773 3.136 14.432C3.86133 13.3653 4.85333 12.5653 6.112 12.032C7.392 11.4773 8.84267 11.2 10.464 11.2C12.896 11.2 14.9867 11.8293 16.736 13.088C18.5067 14.3467 19.584 16.2027 19.968 18.656H15.904C15.584 17.312 14.9333 16.32 13.952 15.68C12.9707 15.0187 11.7867 14.688 10.4 14.688C9.07733 14.688 8.032 14.9653 7.264 15.52C6.496 16.0747 6.112 16.8533 6.112 17.856C6.112 18.6453 6.35733 19.2747 6.848 19.744C7.36 20.2133 8 20.576 8.768 20.832C9.536 21.0667 10.5813 21.3333 11.904 21.632C13.7813 22.0373 15.296 22.464 16.448 22.912C17.6 23.3387 18.5813 24.0427 19.392 25.024C20.224 25.984 20.64 27.3067 20.64 28.992C20.64 31.2747 19.8507 33.088 18.272 34.432C16.7147 35.7547 14.5173 36.416 11.68 36.416ZM31.6945 36.352C29.9452 36.352 28.3878 35.9573 27.0225 35.168C25.6785 34.3573 24.6332 33.2587 23.8865 31.872C23.1398 30.464 22.7665 28.8853 22.7665 27.136C22.7665 25.5147 23.0972 23.9893 23.7585 22.56C24.4412 21.1307 25.4438 19.9787 26.7665 19.104C28.1105 18.2293 29.7212 17.792 31.5985 17.792C33.1772 17.792 34.6385 18.1333 35.9825 18.816C37.3478 19.4773 38.4358 20.4907 39.2465 21.856C40.0785 23.2213 40.4945 24.896 40.4945 26.88V27.84H26.6065C26.7345 28.672 26.9372 29.3333 27.2145 29.824C27.6412 30.8267 28.2492 31.616 29.0385 32.192C29.8492 32.768 30.7665 33.056 31.7905 33.056C32.8785 33.056 33.8065 32.7787 34.5745 32.224C35.3638 31.648 35.9292 30.9333 36.2705 30.08H40.1745C39.5985 31.936 38.5958 33.4507 37.1665 34.624C35.7372 35.776 33.9132 36.352 31.6945 36.352ZM36.5585 24.864C36.4732 24.2027 36.2812 23.6373 35.9825 23.168C35.5558 22.4213 34.9692 21.856 34.2225 21.472C33.4758 21.0667 32.6438 20.864 31.7265 20.864C30.7878 20.864 29.9558 21.0667 29.2305 21.472C28.5052 21.856 27.9185 22.4213 27.4705 23.168C27.1932 23.5947 26.9798 24.16 26.8305 24.864H36.5585ZM48.5563 36C47.1696 36 46.1243 35.68 45.4203 35.04C44.7163 34.4 44.3643 33.344 44.3643 31.872V21.248H41.6763V18.112H44.3643V11.584H48.1403V18.112H51.7883V21.248H48.1403V30.816C48.1403 31.4987 48.2469 32.0107 48.4603 32.352C48.6736 32.672 49.1429 32.832 49.8683 32.832H51.7563V36H48.5563ZM66.2022 36H62.4262V18.112H66.2022V36ZM64.3142 15.808C63.6316 15.808 63.0449 15.5947 62.5542 15.168C62.0849 14.72 61.8502 14.1653 61.8502 13.504C61.8502 12.8427 62.0849 12.2987 62.5542 11.872C63.0449 11.424 63.6316 11.2 64.3142 11.2C65.0182 11.2 65.6049 11.424 66.0742 11.872C66.5436 12.2987 66.7782 12.8427 66.7782 13.504C66.7782 14.1653 66.5436 14.72 66.0742 15.168C65.6049 15.5947 65.0182 15.808 64.3142 15.808ZM75.2925 36C73.9058 36 72.8605 35.68 72.1565 35.04C71.4525 34.4 71.1005 33.344 71.1005 31.872V21.248H68.4125V18.112H71.1005V11.584H74.8765V18.112H78.5245V21.248H74.8765V30.816C74.8765 31.4987 74.9832 32.0107 75.1965 32.352C75.4098 32.672 75.8792 32.832 76.6045 32.832H78.4925V36H75.2925ZM94.7625 36C93.3758 36 92.3305 35.68 91.6265 35.04C90.9225 34.4 90.5705 33.344 90.5705 31.872V21.248H87.8825V18.112H90.5705V11.584H94.3465V18.112H97.9945V21.248H94.3465V30.816C94.3465 31.4987 94.4532 32.0107 94.6665 32.352C94.8798 32.672 95.3492 32.832 96.0745 32.832H97.9625V36H94.7625ZM104.33 36H100.554V18.112H104.33V36ZM102.442 15.808C101.759 15.808 101.172 15.5947 100.682 15.168C100.212 14.72 99.9777 14.1653 99.9777 13.504C99.9777 12.8427 100.212 12.2987 100.682 11.872C101.172 11.424 101.759 11.2 102.442 11.2C103.146 11.2 103.732 11.424 104.202 11.872C104.671 12.2987 104.906 12.8427 104.906 13.504C104.906 14.1653 104.671 14.72 104.202 15.168C103.732 15.5947 103.146 15.808 102.442 15.808ZM115.916 42.88C113.804 42.88 111.991 42.4427 110.476 41.568C108.983 40.6933 108.065 39.2107 107.724 37.12H111.532C111.809 38.0587 112.3 38.7413 113.004 39.168C113.708 39.616 114.668 39.84 115.884 39.84C117.42 39.84 118.551 39.488 119.276 38.784C120.023 38.08 120.396 37.1093 120.396 35.872V33.312C119.649 34.3573 118.86 35.0827 118.028 35.488C117.196 35.8933 116.215 36.096 115.084 36.096C113.527 36.096 112.151 35.712 110.956 34.944C109.761 34.1547 108.833 33.0667 108.172 31.68C107.511 30.2933 107.18 28.7253 107.18 26.976C107.18 25.2053 107.511 23.6267 108.172 22.24C108.833 20.832 109.761 19.744 110.956 18.976C112.151 18.1867 113.516 17.792 115.052 17.792C116.204 17.792 117.185 17.9947 117.996 18.4C118.828 18.8053 119.628 19.52 120.396 20.544V18.112H124.172V35.008C124.172 37.8667 123.436 39.8933 121.964 41.088C120.513 42.2827 118.497 42.88 115.916 42.88ZM115.82 32.832C116.78 32.832 117.633 32.576 118.38 32.064C119.148 31.552 119.735 30.8587 120.14 29.984C120.567 29.088 120.78 28.0747 120.78 26.944C120.78 25.8347 120.567 24.832 120.14 23.936C119.713 23.04 119.127 22.336 118.38 21.824C117.633 21.312 116.78 21.056 115.82 21.056C114.369 21.056 113.196 21.6213 112.3 22.752C111.425 23.8613 110.988 25.2587 110.988 26.944C110.988 28.6507 111.425 30.0587 112.3 31.168C113.196 32.2773 114.369 32.832 115.82 32.832ZM127.68 36V11.584H131.456V20.544C132.203 19.52 132.971 18.8053 133.76 18.4C134.571 17.9947 135.477 17.792 136.48 17.792C139.147 17.792 140.971 18.7627 141.952 20.704C142.293 21.408 142.507 22.1227 142.592 22.848C142.677 23.5733 142.72 24.4693 142.72 25.536V36H138.944V25.536C138.944 23.744 138.635 22.5067 138.016 21.824C137.504 21.248 136.693 20.96 135.584 20.96C134.304 20.96 133.344 21.344 132.704 22.112C132.277 22.6027 131.957 23.264 131.744 24.096C131.552 24.9067 131.456 26.0053 131.456 27.392V36H127.68ZM151.328 36C149.941 36 148.896 35.68 148.192 35.04C147.488 34.4 147.136 33.344 147.136 31.872V21.248H144.448V18.112H147.136V11.584H150.912V18.112H154.56V21.248H150.912V30.816C150.912 31.4987 151.018 32.0107 151.232 32.352C151.445 32.672 151.914 32.832 152.64 32.832H154.528V36H151.328Z" fill="white"/>
</svg>
