<svg width="114" height="24" viewBox="0 0 114 24" fill="none" xmlns="http://www.w3.org/2000/svg">
<path d="M21.8732 24L16.7539 16.2821H24.0989V13.3804H0V16.3023H7.34501L2.22576 24H6.02979L12.0393 14.932L18.0489 24H21.8732ZM24.0989 10.539V7.61713H16.8956L21.9541 0H18.1298L12.0393 9.18892L5.96909 0H2.14482L7.20337 7.61713H0V10.5592H24.0989V10.539Z" fill="white"/>
<path d="M33.8535 17.7161C34.0225 17.4626 34.3013 17.226 34.69 17.0063C35.0787 16.7867 35.4589 16.6684 35.8307 16.6515C35.8814 17.1246 36.0166 17.6063 36.2363 18.0963C36.456 18.5695 36.7686 19.0004 37.1742 19.3891C37.5967 19.7609 38.1121 20.0735 38.7204 20.327C39.3288 20.5636 40.0555 20.6819 40.9004 20.6819C42.134 20.6819 43.1142 20.3692 43.8408 19.744C44.5675 19.1018 44.9308 18.2653 44.9308 17.2345C44.9308 16.2543 44.6773 15.4432 44.1704 14.801C43.6634 14.1589 42.7424 13.6688 41.4074 13.3308L39.0246 12.7224C38.4163 12.5703 37.8417 12.3929 37.3009 12.1901C36.7601 11.9873 36.287 11.7254 35.8814 11.4043C35.4758 11.0663 35.1547 10.6608 34.9182 10.1876C34.6985 9.69751 34.5886 9.10604 34.5886 8.41318C34.5886 7.72032 34.7576 7.05281 35.0956 6.41065C35.4336 5.76848 35.8983 5.20237 36.4898 4.71229C37.0981 4.20532 37.7994 3.79975 38.5937 3.49556C39.4048 3.19138 40.2751 3.03929 41.2046 3.03929C42.134 3.03929 42.9283 3.15758 43.5874 3.39417C44.2464 3.63076 44.7787 3.91804 45.1843 4.25602C45.5899 4.594 45.8856 4.96578 46.0715 5.37135C46.2743 5.76003 46.3926 6.10646 46.4264 6.41065C46.3081 6.64723 46.0884 6.86692 45.7673 7.06971C45.4462 7.2556 45.0745 7.37389 44.652 7.42459C44.5844 7.05281 44.4577 6.68948 44.2718 6.3346C44.0859 5.96282 43.8155 5.63329 43.4606 5.34601C43.1226 5.04182 42.7002 4.79679 42.1932 4.6109C41.6862 4.42501 41.0863 4.33207 40.3934 4.33207C39.2443 4.33207 38.3233 4.63625 37.6304 5.24461C36.9376 5.83608 36.5912 6.62188 36.5912 7.60203C36.5912 8.1597 36.6757 8.62442 36.8446 8.9962C37.0136 9.35108 37.2502 9.65526 37.5544 9.90875C37.8586 10.1453 38.2135 10.3397 38.619 10.4918C39.0415 10.6439 39.4978 10.779 39.9879 10.8973L42.2185 11.455C43.148 11.6916 43.9169 11.9789 44.5253 12.3169C45.1505 12.6548 45.6406 13.0266 45.9955 13.4322C46.3503 13.8378 46.5954 14.2856 46.7306 14.7757C46.8827 15.2488 46.9587 15.7389 46.9587 16.2459C46.9587 17.0063 46.7982 17.733 46.4771 18.4259C46.156 19.1187 45.6913 19.7355 45.0829 20.2763C44.4746 20.8002 43.7394 21.2226 42.8776 21.5437C42.0326 21.8479 41.0779 22 40.0132 22C38.9824 22 38.0867 21.8648 37.3263 21.5944C36.5658 21.324 35.9321 20.9861 35.4251 20.5805C34.9182 20.158 34.5295 19.6933 34.2591 19.1863C34.0056 18.6793 33.8704 18.1893 33.8535 17.7161Z" fill="white"/>
<path d="M48.8068 9.37643C48.942 9.19054 49.1532 9.02155 49.4405 8.86945C49.7447 8.70046 50.0742 8.61597 50.4291 8.61597H51.2402V4.96578C51.5106 4.74609 51.8233 4.58555 52.1781 4.48416C52.5499 4.36586 52.9048 4.30672 53.2428 4.30672V8.61597H58.2111C58.1942 8.90325 58.1097 9.14829 57.9576 9.35108C57.8224 9.53697 57.645 9.62991 57.4253 9.62991H53.2428V17.9442C53.2428 18.485 53.3019 18.9244 53.4202 19.2624C53.5554 19.5834 53.7328 19.8369 53.9525 20.0228C54.1722 20.2087 54.4257 20.3354 54.713 20.403C55.0003 20.4706 55.296 20.5044 55.6002 20.5044C56.1579 20.5044 56.6226 20.3946 56.9944 20.1749C57.3661 19.9552 57.6703 19.7271 57.9069 19.4905C58.1435 19.5581 58.2956 19.7017 58.3632 19.9214C58.2787 20.0566 58.1435 20.2341 57.9576 20.4537C57.7717 20.6734 57.5267 20.8931 57.2225 21.1128C56.9183 21.3156 56.555 21.493 56.1325 21.6451C55.71 21.7972 55.2369 21.8733 54.713 21.8733C54.2398 21.8733 53.792 21.8141 53.3695 21.6958C52.947 21.5775 52.5753 21.3832 52.2542 21.1128C51.95 20.8424 51.705 20.4791 51.5191 20.0228C51.3332 19.5665 51.2402 19.0004 51.2402 18.3245V9.62991H48.8068V9.37643Z" fill="white"/>
<path d="M72.5776 20.6312C72.5269 20.7157 72.4424 20.8171 72.3241 20.9354C72.2227 21.0537 72.1044 21.1719 71.9692 21.2902C71.834 21.3916 71.6819 21.4846 71.5129 21.5691C71.3608 21.6536 71.2172 21.7127 71.082 21.7465C70.5412 21.7127 70.085 21.5099 69.7132 21.1382C69.3414 20.7495 69.1386 20.2425 69.1048 19.6172C68.9696 19.8707 68.7668 20.1411 68.4965 20.4284C68.2261 20.6988 67.8965 20.9523 67.5079 21.1888C67.1361 21.4085 66.7052 21.586 66.2151 21.7212C65.725 21.8733 65.1927 21.9493 64.6181 21.9493C63.4183 21.9493 62.4635 21.6451 61.7537 21.0368C61.0609 20.4284 60.7145 19.6172 60.7145 18.6033C60.7145 17.5556 61.1116 16.6768 61.9058 15.967C62.7001 15.2573 64.0605 14.7334 65.987 14.3954L69.0034 13.8631V12.8745C69.0034 11.6578 68.7161 10.7283 68.1416 10.0862C67.5839 9.44402 66.7474 9.12294 65.6321 9.12294C64.9392 9.12294 64.3477 9.30038 63.8577 9.65526C63.3845 9.99324 63.1479 10.5002 63.1479 11.1762C63.1479 11.4804 63.2493 11.7507 63.4521 11.9873C63.3 12.1901 63.055 12.376 62.717 12.545C62.379 12.714 62.0326 12.8154 61.6777 12.8492C61.5932 12.7647 61.4918 12.6379 61.3735 12.4689C61.2552 12.3 61.1961 12.0718 61.1961 11.7845C61.1961 11.2607 61.3482 10.7706 61.6524 10.3143C61.9565 9.85805 62.3537 9.46937 62.8437 9.14829C63.3338 8.81031 63.8999 8.54837 64.5421 8.36248C65.1843 8.17659 65.8518 8.08365 66.5446 8.08365C68.1669 8.08365 69.3161 8.45543 69.992 9.19899C70.668 9.92564 71.006 10.948 71.006 12.2662V18.6286C71.006 19.3215 71.1581 19.8031 71.4622 20.0735C71.7664 20.327 72.1213 20.4791 72.5269 20.5298L72.5776 20.6312ZM65.4293 20.6058C66.308 20.6058 67.0516 20.403 67.66 19.9975C68.2852 19.5919 68.733 19.068 69.0034 18.4259V14.7757L65.6067 15.384C64.6942 15.553 63.9929 15.8403 63.5028 16.2459C63.0296 16.6515 62.793 17.2345 62.793 17.9949C62.793 18.8399 63.0465 19.4905 63.5535 19.9468C64.0774 20.3861 64.7026 20.6058 65.4293 20.6058Z" fill="white"/>
<path d="M85.9489 11.0748C85.8475 11.2607 85.6447 11.455 85.3406 11.6578C85.0533 11.8606 84.69 11.9873 84.2506 12.038C84.1999 11.7507 84.0985 11.4466 83.9464 11.1255C83.8112 10.7875 83.6084 10.4833 83.338 10.2129C83.0676 9.92564 82.7297 9.69751 82.3241 9.52852C81.9185 9.34263 81.4284 9.24968 80.8539 9.24968C80.3807 9.24968 79.8991 9.34263 79.409 9.52852C78.9358 9.71441 78.5049 10.0186 78.1162 10.4411C77.7276 10.8635 77.4065 11.4043 77.153 12.0634C76.9164 12.7224 76.7981 13.5251 76.7981 14.4715C76.7981 15.4854 76.9333 16.3726 77.2037 17.1331C77.4741 17.8766 77.8374 18.5019 78.2937 19.0089C78.7499 19.4989 79.2738 19.8707 79.8653 20.1242C80.4736 20.3608 81.1074 20.4791 81.7664 20.4791C82.6283 20.4791 83.3549 20.3523 83.9464 20.0989C84.5548 19.8285 85.0702 19.4482 85.4927 18.9582C85.5941 18.9751 85.6954 19.0342 85.7968 19.1356C85.8982 19.237 85.9658 19.33 85.9996 19.4144C85.8644 19.651 85.6532 19.9214 85.3659 20.2256C85.0955 20.5129 84.7491 20.7833 84.3266 21.0368C83.9042 21.2902 83.4141 21.5015 82.8564 21.6705C82.2987 21.8564 81.665 21.9493 80.9553 21.9493C80.1103 21.9493 79.3076 21.8057 78.5472 21.5184C77.8036 21.2311 77.1445 20.8002 76.57 20.2256C76.0123 19.651 75.5645 18.9497 75.2265 18.1217C74.9054 17.2936 74.7449 16.3304 74.7449 15.2319C74.7449 14.2687 74.9223 13.3646 75.2772 12.5196C75.6321 11.6578 76.1137 10.9058 76.7221 10.2636C77.3473 9.60456 78.0824 9.08914 78.9274 8.71736C79.7723 8.32869 80.6849 8.13435 81.665 8.13435C82.4762 8.13435 83.1521 8.25264 83.6929 8.48923C84.2337 8.70891 84.6646 8.9793 84.9857 9.30038C85.3237 9.60456 85.5687 9.92564 85.7208 10.2636C85.8729 10.6016 85.9489 10.872 85.9489 11.0748Z" fill="white"/>
<path d="M89.6201 2.43092C89.9074 2.27883 90.22 2.16899 90.558 2.10139C90.9129 2.0338 91.2678 2 91.6227 2V14.5222C92.1296 14.218 92.645 13.8547 93.1689 13.4322C93.7097 13.0097 94.242 12.545 94.7659 12.038C95.3066 11.5311 95.839 10.9903 96.3628 10.4157C96.8867 9.82425 97.3852 9.22433 97.8584 8.61597C98.0274 8.51458 98.2555 8.43853 98.5428 8.38783C98.8301 8.33714 99.1174 8.31179 99.4047 8.31179C99.6919 8.31179 99.9285 8.33714 100.114 8.38783C99.7764 8.84411 99.3624 9.32573 98.8723 9.8327C98.3823 10.3397 97.8668 10.8382 97.3261 11.3283C96.8022 11.8014 96.2699 12.2577 95.7291 12.6971C95.1883 13.1365 94.6898 13.5167 94.2335 13.8378C94.6729 13.9223 95.0447 14.1335 95.3489 14.4715C95.67 14.8095 96.0333 15.2488 96.4389 15.7896L98.5428 18.6033C98.8301 18.992 99.0836 19.33 99.3033 19.6172C99.5229 19.8876 99.7257 20.1327 99.9116 20.3523C100.098 20.5551 100.267 20.7326 100.419 20.8847C100.571 21.0368 100.731 21.1719 100.9 21.2902V21.417C100.681 21.5353 100.359 21.6198 99.937 21.6705C99.5145 21.7212 99.1681 21.7465 98.8977 21.7465C98.678 21.662 98.4245 21.4761 98.1372 21.1888C97.8668 20.8847 97.4951 20.4115 97.0219 19.7693L94.8673 16.8036C94.6307 16.4825 94.4194 16.2036 94.2335 15.967C94.0646 15.7305 93.8956 15.5446 93.7266 15.4094C93.5745 15.2742 93.4139 15.1728 93.245 15.1052C93.0929 15.0376 92.9154 15.0038 92.7126 15.0038C92.5098 15.0038 92.3155 15.0461 92.1296 15.1305C91.9437 15.1981 91.7747 15.2826 91.6227 15.384V21.3663C91.3861 21.5015 91.0734 21.5944 90.6848 21.6451C90.313 21.7127 89.9581 21.7465 89.6201 21.7465V2.43092Z" fill="white"/>
<path d="M102.937 18.8821C103.072 18.6455 103.291 18.4259 103.596 18.2231C103.917 18.0203 104.255 17.902 104.61 17.8682C104.728 18.73 105.142 19.4482 105.852 20.0228C106.578 20.5805 107.499 20.8593 108.615 20.8593C109.679 20.8593 110.465 20.6312 110.972 20.1749C111.496 19.7017 111.758 19.1187 111.758 18.4259C111.758 17.733 111.513 17.1922 111.023 16.8036C110.55 16.4149 109.73 16.0769 108.564 15.7896L107.068 15.4094C106.528 15.2742 106.038 15.1221 105.598 14.9531C105.176 14.7841 104.804 14.5813 104.483 14.3447C104.179 14.0913 103.942 13.7955 103.773 13.4575C103.604 13.1196 103.52 12.7055 103.52 12.2155C103.52 11.6916 103.655 11.1846 103.925 10.6945C104.196 10.1876 104.567 9.73976 105.041 9.35108C105.531 8.9624 106.088 8.65822 106.714 8.43853C107.356 8.20194 108.049 8.08365 108.792 8.08365C109.553 8.08365 110.195 8.17659 110.719 8.36248C111.242 8.53147 111.673 8.75116 112.011 9.02155C112.366 9.27503 112.62 9.55387 112.772 9.85805C112.941 10.1622 113.034 10.4326 113.051 10.6692C112.932 10.9058 112.73 11.117 112.442 11.3029C112.155 11.4719 111.842 11.5733 111.504 11.6071C111.386 10.9649 111.057 10.4073 110.516 9.93409C109.975 9.46092 109.164 9.22433 108.082 9.22433C107.727 9.22433 107.373 9.27503 107.018 9.37643C106.68 9.46092 106.376 9.59611 106.105 9.782C105.835 9.96789 105.615 10.196 105.446 10.4664C105.277 10.7199 105.193 11.0241 105.193 11.379C105.193 11.9535 105.395 12.4183 105.801 12.7731C106.207 13.1111 106.916 13.3984 107.93 13.635L109.477 14.0152C110.947 14.387 111.994 14.8602 112.62 15.4347C113.262 15.9924 113.583 16.7106 113.583 17.5894C113.583 18.147 113.456 18.6962 113.203 19.237C112.949 19.7609 112.578 20.2341 112.087 20.6565C111.597 21.0621 110.997 21.3832 110.288 21.6198C109.578 21.8733 108.767 22 107.854 22C107.06 22 106.367 21.8986 105.776 21.6958C105.184 21.5099 104.677 21.2649 104.255 20.9607C103.849 20.6565 103.537 20.327 103.317 19.9721C103.097 19.6003 102.97 19.237 102.937 18.8821Z" fill="white"/>
</svg>
