<svg width="128" height="26" viewBox="0 0 128 26" fill="none" xmlns="http://www.w3.org/2000/svg">
<path d="M38.7648 16.3522C38.8642 17.5929 39.3812 18.5777 40.2958 19.3261C41.2104 20.0745 42.4034 20.4487 43.8747 20.4487C45.1671 20.4487 46.201 20.173 46.9963 19.6215C47.7916 19.0701 48.1892 18.302 48.1892 17.3369C48.1892 16.6476 47.9705 16.0764 47.5331 15.6825C47.0957 15.269 46.5191 14.9538 45.7635 14.7372C45.008 14.5205 43.9741 14.2842 42.6221 14.0479C41.2502 13.8115 40.0771 13.4964 39.1028 13.1025C38.1286 12.7086 37.3333 12.1178 36.7169 11.33C36.1005 10.5225 35.8023 9.47867 35.8023 8.17881C35.8023 6.97742 36.1204 5.9139 36.7567 4.96855C37.3929 4.0232 38.2678 3.29449 39.421 2.78242C40.5543 2.27036 41.8665 1.99463 43.3378 1.99463C44.8489 1.99463 46.201 2.27036 47.3939 2.84151C48.5869 3.39296 49.5214 4.16106 50.1974 5.1458C50.8734 6.13055 51.2512 7.23346 51.3108 8.49393H47.891C47.7717 7.41071 47.2945 6.54414 46.4793 5.89421C45.6442 5.24428 44.6103 4.90947 43.3378 4.90947C42.1051 4.90947 41.1309 5.1655 40.3952 5.69726C39.6595 6.22902 39.3017 6.97742 39.3017 7.92278C39.3017 8.5924 39.5204 9.14386 39.9578 9.53775C40.3952 9.93165 40.9718 10.2271 41.6876 10.4437C42.4034 10.6407 43.4571 10.8573 44.8092 11.0936C46.1811 11.33 47.3541 11.6451 48.3483 12.0587C49.3424 12.4526 50.1377 13.0434 50.774 13.8312C51.3903 14.619 51.7085 15.6432 51.7085 16.9233C51.7085 18.1641 51.3705 19.267 50.7143 20.2517C50.0582 21.2365 49.1237 21.9849 47.9307 22.5364C46.7378 23.0878 45.3858 23.3635 43.8747 23.3635C42.2045 23.3635 40.7332 23.0681 39.4607 22.4576C38.1882 21.8667 37.1941 21.0198 36.4783 19.9563C35.7625 18.8928 35.4046 17.6717 35.3848 16.2931L38.7648 16.3522ZM55.3868 10.6997H52.7026V7.86369H55.3868V3.57022H58.6873V7.844H62.4053V10.6801H58.6873V18.6762C58.6873 19.267 58.8066 19.7003 59.0452 19.9563C59.2838 20.2124 59.7013 20.3305 60.2779 20.3305H62.7632V23.1863H59.6218C58.1504 23.1863 57.0768 22.8515 56.4008 22.1622C55.7248 21.4925 55.3868 20.429 55.3868 19.011V10.6997ZM79.2062 7.86369V23.1863H76.3431L75.9852 20.8426C75.4484 21.6107 74.7525 22.2015 73.8975 22.6742C73.0426 23.1272 72.0683 23.3635 70.935 23.3635C69.5234 23.3635 68.2707 23.0484 67.1573 22.4182C66.0439 21.7879 65.1889 20.882 64.5527 19.7003C63.9363 18.5186 63.6182 17.1203 63.6182 15.525C63.6182 13.9691 63.9363 12.5905 64.5726 11.4088C65.2088 10.2271 66.0836 9.30142 67.1772 8.65149C68.2906 8.00156 69.5432 7.68644 70.9151 7.68644C72.0683 7.68644 73.0625 7.90308 73.8975 8.33637C74.7525 8.76966 75.4285 9.3605 75.9455 10.1089L76.3431 7.86369H79.2062ZM74.7326 19.2276C75.5677 18.2823 75.9653 17.0809 75.9653 15.5841C75.9653 14.0676 75.5478 12.8268 74.7326 11.8814C73.8975 10.9164 72.8239 10.4437 71.4719 10.4437C70.1198 10.4437 69.0263 10.9164 68.2111 11.8617C67.376 12.8071 66.9784 14.0282 66.9784 15.525C66.9784 17.0415 67.3959 18.2823 68.2111 19.2276C69.0462 20.173 70.1198 20.6456 71.4719 20.6456C72.8239 20.6456 73.9174 20.173 74.7326 19.2276ZM94.3568 21.847C93.1042 22.8515 91.5136 23.3635 89.5452 23.3635C88.0143 23.3635 86.6622 23.0484 85.4892 22.3985C84.3161 21.7486 83.4213 20.8229 82.7851 19.6215C82.1489 18.4201 81.8307 17.0415 81.8307 15.4856C81.8307 13.9297 82.1489 12.5708 82.805 11.3891C83.4412 10.2074 84.3558 9.30142 85.5488 8.65149C86.7219 8.00156 88.0938 7.68644 89.6446 7.68644C91.5733 7.68644 93.1639 8.1985 94.3966 9.20294C95.6293 10.2074 96.3849 11.586 96.703 13.3192H93.3428C93.1241 12.4329 92.6867 11.7436 92.0107 11.2315C91.3545 10.7194 90.5394 10.4437 89.5651 10.4437C88.2528 10.4437 87.1991 10.9164 86.4038 11.8421C85.6084 12.7874 85.2108 13.9888 85.2108 15.4856C85.2108 17.0021 85.6084 18.2429 86.4038 19.1882C87.1991 20.1336 88.2528 20.6063 89.5651 20.6063C90.5791 20.6063 91.4142 20.3502 92.0703 19.8185C92.7265 19.2867 93.1639 18.5777 93.3627 17.6717H96.6831C96.3849 19.464 95.5896 20.8426 94.3568 21.847ZM99.3076 2.23097H102.568V15.3477L109.647 7.86369H113.424L107.658 14.0282L113.802 23.1863H109.925L105.332 16.3916L102.588 19.267V23.1863H99.3275V2.23097H99.3076ZM117.52 18.1247C117.58 18.9322 117.958 19.5821 118.653 20.0942C119.349 20.6063 120.244 20.8623 121.358 20.8623C122.352 20.8623 123.147 20.685 123.763 20.3108C124.38 19.9366 124.678 19.4443 124.678 18.8337C124.678 18.3217 124.539 17.9278 124.26 17.6717C123.982 17.4157 123.604 17.2187 123.127 17.1203C122.65 17.0021 121.914 16.9036 120.94 16.7855C119.588 16.6279 118.475 16.4113 117.6 16.1355C116.725 15.8598 116.009 15.4462 115.492 14.8554C114.955 14.2645 114.697 13.4767 114.697 12.4723C114.697 11.5269 114.955 10.6998 115.492 9.97104C116.029 9.24233 116.765 8.67118 117.699 8.27728C118.634 7.88339 119.707 7.68644 120.88 7.68644C122.829 7.68644 124.419 8.11973 125.632 8.9666C126.845 9.83318 127.501 11.0346 127.621 12.5905H124.439C124.36 11.9011 124.002 11.3103 123.386 10.877C122.769 10.424 121.974 10.2074 121.02 10.2074C120.065 10.2074 119.31 10.3846 118.713 10.7391C118.137 11.0936 117.838 11.586 117.838 12.1966C117.838 12.6495 117.977 13.004 118.276 13.2207C118.574 13.457 118.932 13.6146 119.369 13.6934C119.807 13.7918 120.522 13.8903 121.517 14.0085C122.849 14.1463 123.962 14.363 124.877 14.6584C125.791 14.9538 126.507 15.4068 127.044 16.0371C127.581 16.6673 127.859 17.5142 127.859 18.5974C127.859 19.5624 127.581 20.3896 127.004 21.1183C126.448 21.847 125.672 22.3985 124.678 22.7924C123.684 23.1863 122.59 23.3832 121.358 23.3832C119.29 23.3832 117.6 22.9106 116.327 21.9849C115.055 21.0592 114.379 19.7791 114.339 18.1444H117.52V18.1247Z" fill="white"/>
<path d="M16.2841 8.31397L24.002 3.21472V7.02404L14.9339 13.0101L24.002 18.9962V22.7854L16.3042 17.6861V25.0024H13.3823L13.3823 0.997654H16.2841V8.31397Z" fill="white"/>
<path d="M7.61908 0.997654H10.541H10.5611L10.5611 25.0024H7.61908V17.8272L0.00195313 22.866L0.00195313 19.0567L9.19087 13.0101L0.00195313 6.94342L0.00195313 3.1341L7.61908 8.17289L7.61908 0.997654Z" fill="white"/>
</svg>
