<svg width="728" height="80" viewBox="0 0 728 80" fill="none" xmlns="http://www.w3.org/2000/svg">
<path d="M111.594 50.132C111.816 60.3716 119.904 67.6432 132.444 67.6432C143.648 67.6432 151.662 61.0394 151.662 51.8386C151.736 41.599 143.351 38.8536 134.744 37.2954C126.582 35.8856 121.24 34.7726 121.24 29.4302C121.24 24.533 125.321 22.0102 131.183 22.0102C137.415 22.0102 141.793 25.5718 142.387 30.84H150.771C150.326 21.4908 142.535 14.8128 131.183 14.8128C120.275 14.8128 112.707 21.0456 112.707 30.0238C112.707 40.3376 120.869 43.083 129.476 44.567C137.712 46.051 143.129 47.2382 143.129 52.729C143.129 57.7004 138.677 60.4458 132.518 60.4458C125.247 60.4458 120.424 56.3648 119.978 50.2804L111.594 50.132Z" fill="white"/>
<path d="M160.064 56.8842C160.064 63.7848 163.18 67.198 170.452 67.198H178.169V60.149H172.084C169.19 60.149 168.152 59.036 168.152 56.068V36.2566H177.278V29.2076H168.152V18.597H160.064V29.2076H153.46V36.2566H160.064V56.8842Z" fill="white"/>
<path d="M210.833 29.2076L209.868 34.7726C207.42 31.2852 203.413 28.7624 197.477 28.7624C187.163 28.7624 179.52 36.4792 179.52 48.2028C179.52 60.3716 187.163 67.6432 197.477 67.6432C203.413 67.6432 207.42 64.8236 209.868 61.4104L210.759 67.198H217.808V29.2076H210.833ZM198.812 60.891C192.134 60.891 187.757 55.697 187.757 48.2028C187.757 40.7828 192.134 35.5888 198.812 35.5888C205.49 35.5888 209.868 40.857 209.868 48.3512C209.868 55.697 205.49 60.891 198.812 60.891Z" fill="white"/>
<path d="M259.919 53.5452H251.757C250.792 57.9972 247.379 60.8168 242.408 60.8168C235.952 60.8168 231.723 55.6228 231.723 48.1286C231.723 40.7086 235.952 35.5888 242.408 35.5888C247.231 35.5888 250.644 38.4084 251.683 42.712H259.919C258.435 34.179 252.202 28.7624 242.63 28.7624C231.055 28.7624 223.487 36.4792 223.487 48.1286C223.487 59.8522 230.981 67.6432 242.408 67.6432C252.128 67.6432 258.435 62.2266 259.919 53.5452Z" fill="white"/>
<path d="M265.602 15.258V67.198H273.616V57.4778L280.368 50.3546L291.646 67.198H301.144L286.081 44.4928L300.254 29.2076H290.979L273.616 47.7576V15.258H265.602Z" fill="white"/>
<path d="M301.929 54.6582C302.152 62.8944 309.052 67.6432 319.143 67.6432C328.27 67.6432 335.096 63.0428 335.096 55.7712C335.096 47.3124 328.047 45.3832 319.514 44.4186C314.098 43.7508 310.462 43.454 310.462 39.8924C310.462 36.8502 313.578 34.921 318.253 34.921C322.928 34.921 326.267 37.4438 326.638 40.857H334.429C333.909 33.066 327.38 28.7624 318.105 28.7624C309.126 28.6882 302.671 33.3628 302.671 40.5602C302.671 48.4254 309.497 50.2062 318.03 51.245C323.818 51.987 327.231 52.358 327.231 56.3648C327.231 59.4812 323.892 61.4104 319.069 61.4104C313.578 61.4104 309.943 58.5908 309.646 54.6582H301.929Z" fill="white"/>
<path d="M359.913 15.258V67.198H368.446V45.2348H388.777V37.889H368.446V22.8264H393.081V15.258H359.913Z" fill="white"/>
<path d="M413.267 67.6432C424.842 67.6432 432.633 59.8522 432.633 48.2028C432.633 36.6276 424.842 28.7624 413.267 28.7624C401.691 28.7624 393.9 36.6276 393.9 48.2028C393.9 59.8522 401.691 67.6432 413.267 67.6432ZM413.267 60.8168C406.514 60.8168 402.137 55.5486 402.137 48.2028C402.137 40.857 406.514 35.5888 413.267 35.5888C420.019 35.5888 424.471 40.857 424.471 48.2028C424.471 55.5486 420.019 60.8168 413.267 60.8168Z" fill="white"/>
<path d="M464.379 29.2076V48.0544C464.379 55.9196 460.669 60.6684 454.584 60.6684C448.723 60.6684 445.755 56.7358 445.755 49.3158V29.2076H437.741V50.132C437.741 63.2654 444.642 67.6432 452.729 67.6432C458.591 67.6432 462.079 65.2688 464.453 62.375L465.343 67.198H472.392V29.2076H464.379Z" fill="white"/>
<path d="M499.581 28.7624C493.423 28.7624 489.787 31.211 487.413 34.179L486.522 29.2076H479.547V67.198H487.561V48.0544C487.561 40.3376 491.345 35.663 497.726 35.663C503.737 35.663 506.779 39.5214 506.779 46.7188V67.198H514.867V46.2736C514.867 33.1402 507.744 28.7624 499.581 28.7624Z" fill="white"/>
<path d="M550.276 15.258V34.4758C547.828 31.1368 543.747 28.7624 537.959 28.7624C527.645 28.7624 520.003 36.4792 520.003 48.2028C520.003 60.3716 527.645 67.6432 537.959 67.6432C543.969 67.6432 547.902 64.8236 550.351 61.4846L551.315 67.198H558.29V15.258H550.276ZM539.295 60.891C532.617 60.891 528.239 55.697 528.239 48.2028C528.239 40.7828 532.617 35.5888 539.295 35.5888C545.973 35.5888 550.351 40.7828 550.351 48.3512C550.351 55.697 545.973 60.891 539.295 60.891Z" fill="white"/>
<path d="M595.282 29.2076L594.317 34.7726C591.868 31.2852 587.862 28.7624 581.926 28.7624C571.612 28.7624 563.969 36.4792 563.969 48.2028C563.969 60.3716 571.612 67.6432 581.926 67.6432C587.862 67.6432 591.868 64.8236 594.317 61.4104L595.207 67.198H602.256V29.2076H595.282ZM583.261 60.891C576.583 60.891 572.205 55.697 572.205 48.2028C572.205 40.7828 576.583 35.5888 583.261 35.5888C589.939 35.5888 594.317 40.857 594.317 48.3512C594.317 55.697 589.939 60.891 583.261 60.891Z" fill="white"/>
<path d="M612.011 56.8842C612.011 63.7848 615.128 67.198 622.399 67.198H630.116V60.149H624.032C621.138 60.149 620.099 59.036 620.099 56.068V36.2566H629.226V29.2076H620.099V18.597H612.011V29.2076H605.408V36.2566H612.011V56.8842Z" fill="white"/>
<path d="M637.682 14.0708C634.936 14.0708 632.784 16.0742 632.784 18.8938C632.784 21.7134 634.936 23.7168 637.682 23.7168C640.427 23.7168 642.579 21.7134 642.579 18.8938C642.579 16.0742 640.427 14.0708 637.682 14.0708ZM633.675 29.2076V67.198H641.688V29.2076H633.675Z" fill="white"/>
<path d="M666.758 67.6432C678.333 67.6432 686.124 59.8522 686.124 48.2028C686.124 36.6276 678.333 28.7624 666.758 28.7624C655.183 28.7624 647.392 36.6276 647.392 48.2028C647.392 59.8522 655.183 67.6432 666.758 67.6432ZM666.758 60.8168C660.006 60.8168 655.628 55.5486 655.628 48.2028C655.628 40.857 660.006 35.5888 666.758 35.5888C673.51 35.5888 677.962 40.857 677.962 48.2028C677.962 55.5486 673.51 60.8168 666.758 60.8168Z" fill="white"/>
<path d="M711.86 28.7624C705.702 28.7624 702.066 31.211 699.691 34.179L698.801 29.2076H691.826V67.198H699.84V48.0544C699.84 40.3376 703.624 35.663 710.005 35.663C716.015 35.663 719.058 39.5214 719.058 46.7188V67.198H727.145V46.2736C727.145 33.1402 720.022 28.7624 711.86 28.7624Z" fill="white"/>
<path fill-rule="evenodd" clip-rule="evenodd" d="M40 80C62.0914 80 80 62.0914 80 40C80 17.9086 62.0914 0 40 0C17.9086 0 0 17.9086 0 40C0 62.0914 17.9086 80 40 80ZM60 32.6952H48.0437L56.44 20H50.0924L39.9832 35.3149L29.9076 20H23.56L31.9563 32.6952H20V37.5987H60V32.6952ZM47.8086 47.1369L56.3056 60H49.958L39.9832 44.8867L30.0084 60H23.6944L32.1914 47.1704H20V42.3006H60V47.1369H47.8086Z" fill="white"/>
</svg>
