<svg width="233" height="20" viewBox="0 0 233 20" fill="none" xmlns="http://www.w3.org/2000/svg">
<path d="M8.648 19.24C6.792 19.24 5.232 18.816 3.968 17.968C2.704 17.104 1.76 15.96 1.136 14.536C0.512 13.112 0.2 11.544 0.2 9.832C0.2 8.12 0.512 6.552 1.136 5.128C1.76 3.704 2.704 2.568 3.968 1.72C5.232 0.871999 6.792 0.447999 8.648 0.447999C9.976 0.447999 11.16 0.671999 12.2 1.12C13.24 1.568 14.08 2.192 14.72 2.992C15.36 3.792 15.776 4.712 15.968 5.752H13.568C13.344 4.728 12.784 3.92 11.888 3.328C11.008 2.72 9.912 2.416 8.6 2.416C7.272 2.416 6.144 2.736 5.216 3.376C4.288 4 3.584 4.872 3.104 5.992C2.64 7.112 2.408 8.392 2.408 9.832C2.408 11.288 2.64 12.576 3.104 13.696C3.584 14.816 4.288 15.696 5.216 16.336C6.144 16.96 7.272 17.272 8.6 17.272C9.944 17.272 11.048 16.952 11.912 16.312C12.792 15.656 13.344 14.704 13.568 13.456H15.968C15.68 15.248 14.888 16.664 13.592 17.704C12.312 18.728 10.664 19.24 8.648 19.24ZM26.6491 19.24C24.8091 19.24 23.2491 18.816 21.9691 17.968C20.6891 17.12 19.7291 15.984 19.0891 14.56C18.4651 13.12 18.1531 11.544 18.1531 9.832C18.1531 8.12 18.4651 6.552 19.0891 5.128C19.7291 3.704 20.6891 2.568 21.9691 1.72C23.2491 0.871999 24.8091 0.447999 26.6491 0.447999C28.5051 0.447999 30.0731 0.871999 31.3531 1.72C32.6491 2.568 33.6091 3.704 34.2331 5.128C34.8731 6.536 35.1931 8.104 35.1931 9.832C35.1931 11.56 34.8731 13.136 34.2331 14.56C33.6091 15.984 32.6491 17.12 31.3531 17.968C30.0731 18.816 28.5051 19.24 26.6491 19.24ZM26.6491 17.248C27.9931 17.248 29.1371 16.936 30.0811 16.312C31.0411 15.672 31.7611 14.792 32.2411 13.672C32.7371 12.552 32.9851 11.272 32.9851 9.832C32.9851 8.392 32.7371 7.12 32.2411 6.016C31.7611 4.896 31.0411 4.024 30.0811 3.4C29.1371 2.76 27.9931 2.44 26.6491 2.44C25.3211 2.44 24.1851 2.76 23.2411 3.4C22.2971 4.024 21.5771 4.896 21.0811 6.016C20.6011 7.12 20.3611 8.392 20.3611 9.832C20.3611 11.272 20.6011 12.552 21.0811 13.672C21.5771 14.792 22.2971 15.672 23.2411 16.312C24.1851 16.936 25.3211 17.248 26.6491 17.248ZM40.5103 19H38.3023V0.688H42.2623L47.1823 16.264L52.1023 0.688H56.0863V19H53.8783V2.008L48.2863 19H46.1023L40.5103 2.128V19ZM62.0962 19H59.8882V0.688H63.8482L68.7682 16.264L73.6882 0.688H77.6722V19H75.4642V2.008L69.8722 19H67.6882L62.0962 2.128V19ZM88.0981 19.24C85.8421 19.24 84.1461 18.664 83.0101 17.512C81.8741 16.36 81.3061 14.744 81.3061 12.664V0.688H83.5141V12.664C83.5141 14.136 83.8901 15.272 84.6421 16.072C85.3941 16.872 86.5461 17.272 88.0981 17.272C89.6501 17.272 90.8021 16.872 91.5541 16.072C92.3061 15.272 92.6821 14.136 92.6821 12.664V0.688H94.8901V12.664C94.8901 14.744 94.3221 16.36 93.1861 17.512C92.0501 18.664 90.3541 19.24 88.0981 19.24ZM100.745 19H98.5366V0.688H101.753L109.985 16.792V0.688H112.169V19H108.953L100.745 2.944V19ZM118.182 19H115.974V0.688H118.182V19ZM128.838 19H126.63V2.68H120.438V0.688H135.054V2.68H128.838V19ZM144.647 19H142.343V11.992L135.479 0.688H138.047L143.447 9.808L148.919 0.688H151.439L144.647 11.992V19ZM167.929 19.24C166.073 19.24 164.513 18.816 163.249 17.968C161.985 17.104 161.041 15.96 160.417 14.536C159.793 13.112 159.481 11.544 159.481 9.832C159.481 8.12 159.793 6.552 160.417 5.128C161.041 3.704 161.985 2.568 163.249 1.72C164.513 0.871999 166.073 0.447999 167.929 0.447999C169.257 0.447999 170.441 0.671999 171.481 1.12C172.521 1.568 173.361 2.192 174.001 2.992C174.641 3.792 175.057 4.712 175.249 5.752H172.849C172.625 4.728 172.065 3.92 171.169 3.328C170.289 2.72 169.193 2.416 167.881 2.416C166.553 2.416 165.425 2.736 164.497 3.376C163.569 4 162.865 4.872 162.385 5.992C161.921 7.112 161.689 8.392 161.689 9.832C161.689 11.288 161.921 12.576 162.385 13.696C162.865 14.816 163.569 15.696 164.497 16.336C165.425 16.96 166.553 17.272 167.881 17.272C169.225 17.272 170.329 16.952 171.193 16.312C172.073 15.656 172.625 14.704 172.849 13.456H175.249C174.961 15.248 174.169 16.664 172.873 17.704C171.593 18.728 169.945 19.24 167.929 19.24ZM178.638 19H176.406L183.15 0.688H185.646L192.39 19H190.158L188.55 14.512H180.246L178.638 19ZM184.398 2.944L180.99 12.544H187.806L184.398 2.944ZM205.046 19H194.63V0.688H196.838V17.008H205.046V19ZM217.726 19H207.31V0.688H209.518V17.008H217.726V19ZM226.333 19.24C224.381 19.24 222.709 18.76 221.317 17.8C219.941 16.84 219.109 15.392 218.821 13.456H221.053C221.325 14.8 221.957 15.776 222.949 16.384C223.957 16.976 225.117 17.272 226.429 17.272C227.741 17.272 228.749 17 229.453 16.456C230.173 15.912 230.533 15.104 230.533 14.032C230.533 13.216 230.309 12.576 229.861 12.112C229.413 11.632 228.853 11.28 228.181 11.056C227.509 10.816 226.605 10.576 225.469 10.336C224.189 10.064 223.157 9.792 222.373 9.52C221.589 9.232 220.925 8.768 220.381 8.128C219.837 7.488 219.565 6.608 219.565 5.488C219.565 4.464 219.813 3.576 220.309 2.824C220.821 2.056 221.525 1.472 222.421 1.072C223.333 0.655999 224.381 0.447999 225.565 0.447999C227.245 0.447999 228.701 0.887999 229.932 1.768C231.165 2.632 231.925 3.952 232.213 5.728H230.077C229.837 4.56 229.301 3.72 228.469 3.208C227.637 2.68 226.661 2.416 225.541 2.416C224.325 2.416 223.389 2.672 222.733 3.184C222.093 3.696 221.773 4.4 221.773 5.296C221.773 6 221.973 6.56 222.373 6.976C222.789 7.376 223.301 7.68 223.909 7.888C224.533 8.096 225.381 8.312 226.453 8.536C227.813 8.824 228.909 9.128 229.741 9.448C230.573 9.752 231.277 10.256 231.853 10.96C232.445 11.664 232.741 12.64 232.741 13.888C232.741 15.536 232.181 16.84 231.061 17.8C229.957 18.76 228.381 19.24 226.333 19.24Z" fill="white"/>
</svg>
