<svg width="137" height="32" viewBox="0 0 137 32" fill="none" xmlns="http://www.w3.org/2000/svg">
<path fill-rule="evenodd" clip-rule="evenodd" d="M0.394779 2.89369C-1.43051e-07 3.80597 -1.016e-07 4.96931 1.03194e-10 7.296L3.80567e-07 16L7.61031e-07 24.704C8.62734e-07 27.0307 9.05991e-07 28.194 0.394779 29.1063C0.879643 30.2268 1.77324 31.1204 2.89369 31.6052C3.80597 32 4.96931 32 7.296 32H16H24.704C27.0307 32 28.194 32 29.1063 31.6052C30.2268 31.1204 31.1204 30.2268 31.6052 29.1063C32 28.194 32 27.0307 32 24.704V16V7.296C32 4.96931 32 3.80597 31.6052 2.89369C31.1204 1.77323 30.2268 0.87964 29.1063 0.394777C28.194 -1.66893e-07 27.0307 -1.01599e-07 24.704 1.03213e-10L16 3.80567e-07L7.296 7.61032e-07C4.96931 8.62734e-07 3.80597 9.05991e-07 2.89369 0.394778C1.77324 0.879644 0.879643 1.77324 0.394779 2.89369ZM21.1084 13.7857C19.5115 13.7857 18.2167 12.4909 18.2167 10.8936C18.2167 9.29717 19.5115 8.00234 21.1084 8.00234C22.7053 8.00234 24.0002 9.29717 24.0002 10.8936C24.0002 12.4909 22.7053 13.7857 21.1084 13.7857ZM13.781 10.8933C13.781 12.4895 12.4867 13.7838 10.8902 13.7838C9.29444 13.7838 8.0002 12.4895 8.0002 10.8933C8.0002 9.29714 9.29444 8.00286 10.8902 8.00286C12.4867 8.00286 13.781 9.29714 13.781 10.8933ZM21.1087 18.2256C19.5114 18.2256 18.2166 19.5204 18.2166 21.1173C18.2166 22.7143 19.5114 24.0091 21.1087 24.0091C22.7052 24.0091 24 22.7143 24 21.1173C24 19.5204 22.7052 18.2256 21.1087 18.2256ZM10.8904 18.2284C12.4866 18.2284 13.7809 19.5226 13.7809 21.1192C13.7809 22.7149 12.4866 24.0091 10.8904 24.0091C9.29426 24.0091 8 22.7149 8 21.1192C8 19.5226 9.29426 18.2284 10.8904 18.2284Z" fill="white"/>
<path d="M47.3801 19.3575C47.4795 20.5983 47.9964 21.5831 48.911 22.3315C49.8256 23.0799 51.0186 23.4541 52.4899 23.4541C53.7823 23.4541 54.8162 23.1783 55.6115 22.6269C56.4068 22.0754 56.8045 21.3073 56.8045 20.3423C56.8045 19.653 56.5857 19.0818 56.1483 18.6879C55.7109 18.2743 55.1343 17.9592 54.3788 17.7426C53.6232 17.5259 52.5893 17.2896 51.2373 17.0532C49.8654 16.8169 48.6923 16.5018 47.7181 16.1079C46.7438 15.714 45.9485 15.1232 45.3321 14.3354C44.7158 13.5279 44.4175 12.484 44.4175 11.1842C44.4175 9.9828 44.7357 8.91927 45.3719 7.97392C46.0082 7.02857 46.883 6.29986 48.0362 5.78779C49.1695 5.27573 50.4818 5 51.9531 5C53.4642 5 54.8162 5.27573 56.0091 5.84688C57.2021 6.39833 58.1366 7.16643 58.8126 8.15118C59.4886 9.13592 59.8664 10.2388 59.926 11.4993H56.5062C56.3869 10.4161 55.9097 9.54951 55.0945 8.89958C54.2595 8.24965 53.2256 7.91484 51.9531 7.91484C50.7204 7.91484 49.7461 8.17087 49.0104 8.70263C48.2748 9.23439 47.9169 9.9828 47.9169 10.9281C47.9169 11.5978 48.1356 12.1492 48.573 12.5431C49.0104 12.937 49.587 13.2324 50.3028 13.4491C51.0186 13.646 52.0724 13.8627 53.4244 14.099C54.7963 14.3354 55.9694 14.6505 56.9635 15.0641C57.9577 15.458 58.753 16.0488 59.3892 16.8366C60.0056 17.6244 60.3237 18.6485 60.3237 19.9287C60.3237 21.1695 59.9857 22.2724 59.3296 23.2571C58.6734 24.2419 57.7389 24.9903 56.546 25.5417C55.353 26.0932 54.001 26.3689 52.4899 26.3689C50.8198 26.3689 49.3484 26.0735 48.076 25.4629C46.8035 24.8721 45.8093 24.0252 45.0935 22.9617C44.3778 21.8982 44.0199 20.6771 44 19.2985L47.3801 19.3575ZM64.002 13.7051H61.3178V10.8691H64.002V6.57559H67.3025V10.8494H71.0206V13.6854H67.3025V21.6815C67.3025 22.2724 67.4218 22.7057 67.6604 22.9617C67.899 23.2177 68.3165 23.3359 68.8931 23.3359H71.3785V26.1917H68.237C66.7657 26.1917 65.692 25.8568 65.016 25.1675C64.34 24.4979 64.002 23.4344 64.002 22.0163V13.7051ZM87.8215 10.8691V26.1917H84.9583L84.6005 23.848C84.0636 24.6161 83.3677 25.2069 82.5128 25.6796C81.6578 26.1326 80.6836 26.3689 79.5503 26.3689C78.1386 26.3689 76.886 26.0538 75.7725 25.4236C74.6591 24.7933 73.8042 23.8874 73.1679 22.7057C72.5515 21.524 72.2334 20.1256 72.2334 18.5304C72.2334 16.9745 72.5515 15.5958 73.1878 14.4141C73.824 13.2324 74.6989 12.3068 75.7924 11.6569C76.9059 11.0069 78.1585 10.6918 79.5304 10.6918C80.6836 10.6918 81.6777 10.9085 82.5128 11.3417C83.3677 11.775 84.0437 12.3659 84.5607 13.1143L84.9583 10.8691H87.8215ZM83.3478 22.233C84.1829 21.2876 84.5806 20.0863 84.5806 18.5894C84.5806 17.0729 84.163 15.8322 83.3478 14.8868C82.5128 13.9218 81.4391 13.4491 80.0871 13.4491C78.7351 13.4491 77.6415 13.9218 76.8263 14.8671C75.9913 15.8125 75.5936 17.0335 75.5936 18.5304C75.5936 20.0469 76.0111 21.2876 76.8263 22.233C77.6614 23.1783 78.7351 23.651 80.0871 23.651C81.4391 23.651 82.5327 23.1783 83.3478 22.233ZM102.972 24.8524C101.719 25.8568 100.129 26.3689 98.1605 26.3689C96.6295 26.3689 95.2775 26.0538 94.1044 25.4039C92.9313 24.7539 92.0366 23.8283 91.4003 22.6269C90.7641 21.4255 90.446 20.0469 90.446 18.491C90.446 16.9351 90.7641 15.5761 91.4202 14.3944C92.0565 13.2127 92.9711 12.3068 94.164 11.6569C95.3371 11.0069 96.709 10.6918 98.2599 10.6918C100.188 10.6918 101.779 11.2039 103.012 12.2083C104.245 13.2128 105 14.5914 105.318 16.3245H101.958C101.739 15.4383 101.302 14.7489 100.626 14.2369C99.9698 13.7248 99.1546 13.4491 98.1803 13.4491C96.8681 13.4491 95.8143 13.9218 95.019 14.8474C94.2237 15.7928 93.826 16.9942 93.826 18.491C93.826 20.0075 94.2237 21.2482 95.019 22.1936C95.8143 23.139 96.8681 23.6116 98.1803 23.6116C99.1944 23.6116 100.029 23.3556 100.686 22.8238C101.342 22.2921 101.779 21.5831 101.978 20.6771H105.298C105 22.4693 104.205 23.848 102.972 24.8524ZM107.923 5.23634H111.184V18.3531L118.262 10.8691H122.04L116.274 17.0336L122.417 26.1917H118.54L113.947 19.3969L111.204 22.2724V26.1917H107.943V5.23634H107.923ZM126.135 21.1301C126.195 21.9376 126.573 22.5875 127.269 23.0996C127.965 23.6116 128.859 23.8677 129.973 23.8677C130.967 23.8677 131.762 23.6904 132.379 23.3162C132.995 22.942 133.293 22.4496 133.293 21.8391C133.293 21.327 133.154 20.9331 132.876 20.6771C132.597 20.4211 132.22 20.2241 131.742 20.1256C131.265 20.0075 130.529 19.909 129.555 19.7908C128.203 19.6333 127.09 19.4166 126.215 19.1409C125.34 18.8652 124.624 18.4516 124.107 17.8607C123.571 17.2699 123.312 16.4821 123.312 15.4777C123.312 14.5323 123.571 13.7051 124.107 12.9764C124.644 12.2477 125.38 11.6766 126.314 11.2827C127.249 10.8888 128.323 10.6918 129.496 10.6918C131.444 10.6918 133.035 11.1251 134.248 11.972C135.46 12.8385 136.117 14.0399 136.236 15.5958H133.055C132.975 14.9065 132.617 14.3157 132.001 13.8824C131.384 13.4294 130.589 13.2127 129.635 13.2127C128.68 13.2127 127.925 13.39 127.328 13.7445C126.752 14.099 126.454 14.5914 126.454 15.2019C126.454 15.6549 126.593 16.0094 126.891 16.2261C127.189 16.4624 127.547 16.62 127.984 16.6987C128.422 16.7972 129.138 16.8957 130.132 17.0139C131.464 17.1517 132.577 17.3684 133.492 17.6638C134.407 17.9592 135.122 18.4122 135.659 19.0424C136.196 19.6727 136.474 20.5195 136.474 21.6028C136.474 22.5678 136.196 23.395 135.619 24.1237C135.063 24.8524 134.287 25.4039 133.293 25.7978C132.299 26.1917 131.205 26.3886 129.973 26.3886C127.905 26.3886 126.215 25.9159 124.942 24.9903C123.67 24.0646 122.994 22.7844 122.954 21.1498H126.135V21.1301Z" fill="white"/>
</svg>
